<?xml version="1.0" encoding="utf-8"?>
<!-- Generator: Adobe Illustrator 18.0.0, SVG Export Plug-In . SVG Version: 6.00 Build 0)  -->
<!DOCTYPE svg PUBLIC "-//W3C//DTD SVG 1.1//EN" "http://www.w3.org/Graphics/SVG/1.1/DTD/svg11.dtd">
<svg version="1.1" id="Layer_1" xmlns="http://www.w3.org/2000/svg" xmlns:xlink="http://www.w3.org/1999/xlink" x="0px" y="0px"
	 viewBox="282.5 198.7 305 379" enable-background="new 282.5 198.7 305 379" xml:space="preserve">
<g>
	<path fill="#666666" d="M449.6,277.4c30.8,0,55.8,26.4,55.8,58.8c0,0.1,0,0.4,0,0.5c0,0.4,0,0.9,0,1.3l-0.2,8.9h8.5
		c20.4,0,37,17.6,37,39.1c0,21.4-16.6,39-37,39.1h-1.8H360.6c-22.7,0-41.3-19.6-41.3-43.4c0-18.6,11.3-35.1,27.8-41.1l4.6-1.7l0.8-5
		c2-12.6,12.3-21.7,24.4-21.7c3.9,0,7.6,1,11.1,2.8l7.5,4l3.7-8C408.6,290.5,428.4,277.4,449.6,277.4 M449.6,268.7
		c-25.5,0-47.4,15.7-57.8,38.4c-4.5-2.4-9.5-3.8-14.8-3.8c-16.4,0-29.9,12.5-32.6,29c-19.5,7.1-33.5,26.4-33.5,49.3
		c0,28.7,22.2,52.2,49.6,52.2h153.1l0,0c25-0.1,45.1-21.5,45.1-47.8c0-26.4-20.2-47.8-45.3-47.8c0-0.7,0.1-1.3,0.1-2.1
		C513.7,298.8,484.9,268.7,449.6,268.7L449.6,268.7z"/>
	<circle fill="none" stroke="#231F20" stroke-width="5" stroke-miterlimit="10" cx="435" cy="351.2" r="150"/>
</g>
<text transform="matrix(1 0 0 1 315.1371 565.7761)" font-family="'MyriadPro-Regular'" font-size="48">Tommorrow</text>
</svg>
