<?xml version="1.0" encoding="utf-8"?>
<!-- Generator: Adobe Illustrator 18.0.0, SVG Export Plug-In . SVG Version: 6.00 Build 0)  -->
<!DOCTYPE svg PUBLIC "-//W3C//DTD SVG 1.1//EN" "http://www.w3.org/Graphics/SVG/1.1/DTD/svg11.dtd">
<svg version="1.1" id="Layer_1" xmlns="http://www.w3.org/2000/svg" xmlns:xlink="http://www.w3.org/1999/xlink" x="0px" y="0px"
	 viewBox="5 235.3 585.5 370.5" enable-background="new 5 235.3 585.5 370.5" xml:space="preserve">
<path fill="#410AB4" d="M332.4,254.8c72.7,0,131.7,59.1,131.7,131.7c0,0.3,0,0.8-0.1,1.2c0,0.9-0.1,2-0.1,2.9l-0.5,19.9l20,0.1
	c48.3,0.1,87.5,39.5,87.5,87.8c0,48.1-39.2,87.5-87.4,87.8h-4.3H122.1c-53.7,0-97.5-43.8-97.5-97.5c0-41.6,26.5-78.7,65.9-92.3
	l10.9-3.7l2-11.4c4.8-28.3,29.1-48.7,57.7-48.7c9.1,0,17.9,2.1,26.2,6.3l17.8,9l8.6-17.9C235.4,284.2,282.1,254.8,332.4,254.8
	 M332.4,235.3c-60.2,0-112.1,35.2-136.4,86.2c-10.6-5.3-22.4-8.4-35-8.4c-38.6,0-70.7,28.1-76.9,65C38.1,393.9,5,437.3,5,488.7
	c0,64.6,52.4,117.1,117.1,117.1h361.6l0,0c59.1-0.3,106.8-48.3,106.8-107.3c0-59.2-47.9-107.2-107.1-107.3c0-1.5,0.2-3,0.2-4.7
	C483.7,302.9,416,235.3,332.4,235.3L332.4,235.3z"/>
</svg>
