<?xml version="1.0" encoding="utf-8"?>
<!-- Generator: Adobe Illustrator 18.0.0, SVG Export Plug-In . SVG Version: 6.00 Build 0)  -->
<!DOCTYPE svg PUBLIC "-//W3C//DTD SVG 1.1//EN" "http://www.w3.org/Graphics/SVG/1.1/DTD/svg11.dtd">
<svg version="1.1" id="Layer_1" xmlns="http://www.w3.org/2000/svg" xmlns:xlink="http://www.w3.org/1999/xlink" x="0px" y="0px"
	 viewBox="0 0 123 419.8" enable-background="new 0 0 123 419.8" xml:space="preserve">
<path fill="#FFFFFF" stroke="#000000" stroke-miterlimit="10" d="M110.2,419.3H12.5c-6.6,0-12-5.4-12-12V12.5c0-6.6,5.4-12,12-12
	h97.7c6.6,0,12,5.4,12,12v394.8C122.2,413.9,116.8,419.3,110.2,419.3z"/>
<line fill="none" stroke="#000000" stroke-miterlimit="10" x1="1.2" y1="141.8" x2="123" y2="141.8"/>
<line fill="none" stroke="#000000" stroke-miterlimit="10" x1="0.6" y1="286" x2="122.3" y2="286"/>
<text transform="matrix(1 0 0 1 12.8191 16.4416)" font-family="'MyriadPro-Regular'" font-size="12">Morning </text>
<text transform="matrix(1 0 0 1 12.8189 157.0219)" font-family="'MyriadPro-Regular'" font-size="12">Afternoon</text>
<text transform="matrix(1 0 0 1 12.8189 301.9495)" font-family="'MyriadPro-Regular'" font-size="12">Night</text>
<g>
	<g>
		<path fill="#1D1D1B" d="M75.1,255.3l-3.5-2c0.1-0.6,0.2-1.2,0.2-1.9c0-0.6-0.1-1.3-0.2-1.9l3.5-2c1.6-1,2.2-3.1,1.3-4.7
			c-1-1.7-3.1-2.2-4.7-1.3l-3.6,2.1c-1-0.8-2-1.4-3.2-1.9v-4.1c0-1.9-1.6-3.5-3.5-3.5c-1.9,0-3.5,1.5-3.5,3.5v4.1
			c-1.2,0.4-2.3,1.1-3.2,1.9l-3.5-2.1c-1.7-1-3.8-0.4-4.7,1.3c-1,1.6-0.4,3.8,1.3,4.7l3.5,2c-0.1,0.6-0.2,1.2-0.2,1.9
			c0,0.6,0.1,1.3,0.2,1.9l-3.5,2c-1.7,1-2.2,3.1-1.3,4.7c1,1.6,3.1,2.2,4.7,1.3l3.5-2c1,0.8,2,1.4,3.2,1.9v4.1
			c0,1.9,1.5,3.4,3.5,3.4s3.5-1.5,3.5-3.4v-4.1c1.2-0.4,2.3-1.1,3.2-1.9l3.5,2.1c1.7,1,3.8,0.4,4.7-1.3
			C77.3,258.4,76.8,256.3,75.1,255.3z M61.4,254.8c-1.9,0-3.5-1.6-3.5-3.5s1.6-3.4,3.5-3.4s3.5,1.5,3.5,3.4S63.3,254.8,61.4,254.8z
			 M104,246l-2.4-0.6c-0.1-0.7-0.2-1.5-0.6-2.1l1.7-1.7c0.8-0.8,0.8-2.1,0-2.9c-0.8-0.8-2.1-0.8-2.9,0l-1.7,1.7
			c-0.7-0.3-1.4-0.5-2.1-0.6l-0.6-2.4c-0.3-1.1-1.4-1.7-2.5-1.5c-1.1,0.3-1.7,1.4-1.4,2.5l0.6,2.3c-0.3,0.2-0.6,0.4-0.9,0.7
			c-0.3,0.3-0.5,0.6-0.7,0.9l-2.3-0.6c-1.1-0.3-2.2,0.4-2.5,1.5c-0.3,1.1,0.4,2.2,1.4,2.5l2.3,0.6c0.1,0.7,0.3,1.5,0.6,2.1l-1.7,1.7
			c-0.8,0.8-0.8,2.1,0,2.9c0.8,0.8,2.1,0.8,2.9,0l1.7-1.7c0.7,0.3,1.4,0.5,2.1,0.6l0.6,2.3c0.3,1.1,1.4,1.7,2.5,1.5
			c1.1-0.3,1.7-1.4,1.5-2.5l-0.6-2.3c0.3-0.2,0.6-0.4,0.9-0.7c0.3-0.3,0.5-0.6,0.7-0.9l2.3,0.6c1.1,0.3,2.2-0.4,2.5-1.4
			C105.8,247.4,105.1,246.3,104,246z M97,247.3c-0.8,0.8-2.1,0.8-2.9,0c-0.8-0.8-0.8-2.1,0-2.9c0.8-0.8,2.1-0.8,2.9,0
			C97.8,245.2,97.8,246.5,97,247.3z M34.7,235.5l-2.3,0.6c-0.2-0.3-0.4-0.6-0.7-0.9c-0.3-0.3-0.6-0.5-0.9-0.7l0.6-2.3
			c0.3-1.1-0.4-2.2-1.4-2.5c-1.1-0.3-2.2,0.4-2.5,1.4l-0.6,2.4c-0.7,0.1-1.5,0.2-2.1,0.6l-1.7-1.7c-0.8-0.8-2.1-0.8-2.9,0
			c-0.8,0.8-0.8,2.1,0,2.9l1.7,1.7c-0.3,0.7-0.5,1.4-0.6,2.1l-2.4,0.6c-1.1,0.3-1.7,1.4-1.5,2.5c0.3,1.1,1.4,1.7,2.5,1.4l2.3-0.6
			c0.2,0.3,0.4,0.6,0.7,0.9c0.3,0.3,0.6,0.5,0.9,0.7l-0.6,2.3c-0.3,1.1,0.4,2.2,1.4,2.5c1.1,0.3,2.2-0.4,2.5-1.5l0.6-2.3
			c0.7-0.1,1.5-0.2,2.1-0.6l1.7,1.7c0.8,0.8,2.1,0.8,2.9,0c0.8-0.8,0.8-2.1,0-2.9l-1.7-1.7c0.3-0.7,0.5-1.4,0.6-2.1l2.4-0.6
			c1.1-0.3,1.7-1.4,1.4-2.5C36.9,235.9,35.8,235.2,34.7,235.5z M28.7,241.1c-0.8,0.8-2.1,0.8-2.9,0c-0.8-0.8-0.8-2.1,0-2.9
			c0.8-0.8,2.1-0.8,2.9,0C29.5,239,29.5,240.3,28.7,241.1z M111.4,203c0-12.1-9.8-21.9-21.9-21.9c-1,0-2.1,0.1-3.1,0.2
			c-5.8-8-15-12.7-25-12.7s-19.2,4.8-25,12.7c-1-0.1-2-0.2-3.1-0.2c-12.1,0-21.9,9.8-21.9,21.9c0,12.1,9.8,21.9,21.9,21.9
			c2.7,0,5.3-0.5,7.8-1.4c5.7,4.9,12.8,7.7,20.4,7.7c7.5,0,14.7-2.8,20.4-7.7c2.5,0.9,5.1,1.4,7.8,1.4
			C101.6,224.9,111.4,215.1,111.4,203z M80.6,215.8c-4.6,5.5-11.4,9.1-19.2,9.1c-7.7,0-14.6-3.6-19.2-9.1c-2.5,1.8-5.6,2.9-9,2.9
			c-8.6,0-15.6-7-15.6-15.6c0-8.6,7-15.6,15.6-15.6c2.1,0,4.1,0.4,5.9,1.2c4.1-8.1,12.5-13.7,22.2-13.7s18,5.6,22.2,13.7
			c1.8-0.8,3.8-1.2,5.9-1.2c8.6,0,15.6,7,15.6,15.6c0,8.6-7,15.6-15.6,15.6C86.2,218.6,83.1,217.6,80.6,215.8z"/>
	</g>
</g>
<path fill="#1D1D1B" d="M90.2,43.8c-1,0-2.1,0.1-3.1,0.2c-5.8-8.5-15-13.6-25-13.6s-19.2,5.1-25,13.6c-1-0.2-2-0.2-3.1-0.2
	c-12.1,0-21.9,10.5-21.9,23.3S21.9,90.4,34,90.4c2.7,0,5.3-0.5,7.8-1.5c4.2,3.9,9.3,6.5,14.7,7.6l-6.8,7.3l6.3,6.7l-6.3,20l18.8-20
	l-6.3-6.7l2.1-6.9c6.7-0.5,13.1-3.2,18.2-8c2.5,1,5.1,1.5,7.8,1.5c12.1,0,21.9-10.5,21.9-23.3S102.3,43.8,90.2,43.8z"/>
<g>
	<g>
		<path fill="#1D1D1B" d="M89.5,321.2c-1,0-2.1,0.1-3.1,0.2c-5.8-8-15-12.7-25-12.7s-19.2,4.8-25,12.7c-1-0.1-2-0.2-3.1-0.2
			c-12.1,0-21.9,9.8-21.9,21.9S21.2,365,33.2,365c2.7,0,5.3-0.5,7.8-1.4c5.7,4.9,12.8,7.7,20.4,7.7c7.5,0,14.7-2.8,20.4-7.7
			c2.5,0.9,5.1,1.4,7.8,1.4c12.1,0,21.9-9.8,21.9-21.9S101.6,321.2,89.5,321.2z M30.1,371.2c-3.5,0-6.3,2.8-6.3,6.3
			c0,3.5,2.8,6.3,6.3,6.3s6.2-2.8,6.2-6.3C36.4,374,33.6,371.2,30.1,371.2z M61.4,377.5c-3.5,0-6.3,2.8-6.3,6.3
			c0,3.5,2.8,6.3,6.3,6.3s6.3-2.8,6.3-6.3C67.6,380.2,64.8,377.5,61.4,377.5z M92.6,371.2c-3.5,0-6.3,2.8-6.3,6.3
			c0,3.5,2.8,6.3,6.3,6.3c3.5,0,6.3-2.8,6.3-6.3C98.9,374,96.1,371.2,92.6,371.2z M80.1,396.2c-3.5,0-6.3,2.8-6.3,6.3
			c0,3.5,2.8,6.3,6.3,6.3c3.5,0,6.3-2.8,6.3-6.3C86.4,399,83.6,396.2,80.1,396.2z M42.6,396.2c-3.5,0-6.3,2.8-6.3,6.3
			c0,3.5,2.8,6.3,6.3,6.3c3.5,0,6.3-2.8,6.3-6.3C48.9,399,46.1,396.2,42.6,396.2z"/>
	</g>
</g>
</svg>
