<?xml version="1.0" encoding="utf-8"?>
<!-- Generator: Adobe Illustrator 18.0.0, SVG Export Plug-In . SVG Version: 6.00 Build 0)  -->
<!DOCTYPE svg PUBLIC "-//W3C//DTD SVG 1.1//EN" "http://www.w3.org/Graphics/SVG/1.1/DTD/svg11.dtd">
<svg version="1.1" id="Layer_1" xmlns="http://www.w3.org/2000/svg" xmlns:xlink="http://www.w3.org/1999/xlink" x="0px" y="0px"
	 viewBox="0.2 174.8 841.4 245.8" enable-background="new 0.2 174.8 841.4 245.8" xml:space="preserve">
<path fill="#FFFFFF" stroke="#010101" stroke-miterlimit="10" d="M0.7,395.6V199.4c0-13.3,10.9-24.1,24.1-24.1H817
	c13.3,0,24.1,10.9,24.1,24.1v196c0,13.3-10.9,24.1-24.1,24.1H24.8C11.6,419.6,0.7,408.7,0.7,395.6z"/>
<line fill="none" stroke="#010101" stroke-miterlimit="10" x1="559.3" y1="176.4" x2="559.3" y2="420.6"/>
<path fill="none" stroke="#010101" stroke-miterlimit="10" d="M571.6,419.6"/>
<path fill="none" stroke="#010101" stroke-miterlimit="10" d="M571.6,175.4"/>
<line fill="none" stroke="#010101" stroke-miterlimit="10" x1="278.2" y1="176.4" x2="278.2" y2="420.6"/>
<text transform="matrix(1 0 0 1 52.6401 326.9988)" font-family="'MyriadPro-Regular'" font-size="101.8895">80°F</text>
<text transform="matrix(1 0 0 1 313.9229 289.0574)" font-family="'MyriadPro-Regular'" font-size="50.9447" letter-spacing="39"> </text>
<text transform="matrix(1 0 0 1 589.5342 319.8201)" font-family="'MyriadPro-Regular'" font-size="67.9263">Monday</text>
<text transform="matrix(1 0 0 1 363.9814 274.4192)" font-family="'MyriadPro-Regular'" font-size="59.998">AUG</text>
<text transform="matrix(1 0 0 1 363.9814 346.4167)" font-family="'MyriadPro-Regular'" font-size="59.998">25th</text>
</svg>
