<?xml version="1.0" encoding="utf-8"?>
<!-- Generator: Adobe Illustrator 18.0.0, SVG Export Plug-In . SVG Version: 6.00 Build 0)  -->
<!DOCTYPE svg PUBLIC "-//W3C//DTD SVG 1.1//EN" "http://www.w3.org/Graphics/SVG/1.1/DTD/svg11.dtd">
<svg version="1.1" id="Layer_1" xmlns="http://www.w3.org/2000/svg" xmlns:xlink="http://www.w3.org/1999/xlink" x="0px" y="0px"
	 viewBox="0 314.3 841.9 473.6" enable-background="new 0 314.3 841.9 473.6" xml:space="preserve">
<g>
	<g>
		<g>
			<g>
				<g>
					<defs>
						<rect id="SVGID_1_" y="314.3" width="841.9" height="473.6"/>
					</defs>
					<clipPath id="SVGID_2_">
						<use xlink:href="#SVGID_1_"  overflow="visible"/>
					</clipPath>
					<g clip-path="url(#SVGID_2_)">
						<text transform="matrix(1 0 0 1 -4.844391e-003 352.0103)" fill="#010101" font-family="'Calibri'" font-size="34.525"> </text>
					</g>
				</g>
			</g>
		</g>
	</g>
	<path fill="#231F20" d="M308.7,441.2c-4,0-8.1,0-12,0c-6.1-38-15-62.1-27-73.4c-10.9-10.6-32.2-15.3-63.6-15.3
		c-10.6,0-21.4,0-32.2,0c0,116.5,0,232.8,0,349.3c0,23.9,4,40.9,12,51.5c8.3,9.2,24.5,14.7,47.2,16.4c0,4,0,8.1,0,12.3
		c-50.6,0-101.5,0-152.2,0c0-4,0-8.1,0-12.3c23.9-1.7,39.5-8.3,47.5-20.1c6.6-9.8,10-28.7,10-56.4c0-113.7,0-227,0-340.7
		c-10.9,0-22.2,0-33.1,0c-31.1,0-52,5.5-63.6,16.4c-11.5,10.6-20.6,34.2-26.4,72.3c-4.4,0-8.3,0-12.7,0c0.6-36.5,1.7-73.1,2.8-109.3
		c100.1,0,200,0,300.1,0C306.7,368.2,307.9,404.7,308.7,441.2L308.7,441.2z"/>
	<path fill="#598CC9" d="M578,781.9c-36.2,0-72.3,0-108.5,0c0-3.4,0-6.9,0-10.3c15-1.7,25.6-6.6,31.1-13.6c7.2-9.2,10.9-27,10.9-52
		c0-39.7,0-79.5,0-119.4c0-55.6-17.3-82-51.5-80.3c-21.6,1.1-44.5,19.2-67,55.6c0,48.1,0,95.7,0,143.8c0,25,4,42.9,10.9,52
		c4.9,6.9,15.6,11.5,31.1,13.6c0,3.4,0,6.9,0,10.3c-37.3,0-74.5,0-111.9,0c0-3.4,0-6.9,0-10.3c16.1-2.5,26.7-7.8,32.8-15.8
		c4.9-8.1,7.8-24.5,7.8-49.5c0-102.4,0-204.9,0-307c0-27.6-10.9-40.9-33.1-40.9c-2.3,0-4.4,0-6.6,0c0-3.7,0-7.8,0-11.5
		c15-4.4,38.3-13.9,69.3-29.4c0,74.5,0,149.3,0,223.9c2-2.8,4-5.8,6.1-8.6c28.4-40.6,56.4-60.4,82.6-60.4c27,0,44.8,14.1,53.2,42.9
		c3.7,13,5.5,33.7,5.5,63.1c0,42.9,0,85.7,0,128.3c0,25,2.8,42,8.9,50.6c4.4,6.9,13.9,11.5,28.7,14.7C578,774.9,578,778.5,578,781.9
		L578,781.9z"/>
	<path fill="#598CC9" d="M840.5,757.4c-16.1,4.4-38.3,13.3-66.5,27.6c0.6-23.3,1.1-46.7,1.7-69.6c-8.6,12.3-20.6,26.7-34.2,44
		c-19.2,17.8-38.3,27-56.4,27.6c-13.9,0-26.2-5.5-35.4-16.4c-13.9-15.6-20.4-39.2-20.4-71.1c0-55,0-110.2,0-165.2
		c0-32.5-13.3-48.9-39.5-50.6c0-3.1,0-6.1,0-9.2c23.1,0,46.1,0,69.3,0c0,72.8,0,145.5,0,218.4c0,34.8,16.1,52.6,48.6,52.6
		c17.3,0,33.9-8.3,49.8-26.2c9.2-9.8,14.4-23.9,14.4-42.9c0-47.2,0-94,0-141.3c0-15.8-2.8-26.7-7.8-33.7
		c-7.2-9.2-19.2-14.1-37.8-15.3c0-3.7,0-7.8,0-11.5c25,0,50.1,0,75.4,0c0,75.7,0,151.3,0,227c0,29.4,12.7,44,38.9,44
		C840.5,749.3,840.5,753.4,840.5,757.4L840.5,757.4z"/>
	<path fill="none" stroke="#010101" stroke-width="0.75" stroke-linecap="round" stroke-linejoin="round" stroke-miterlimit="8" d="
		M308.7,441.2c-4,0-8.1,0-12,0c-6.1-38-15-62.1-27-73.4c-10.9-10.6-32.2-15.3-63.6-15.3c-10.6,0-21.4,0-32.2,0
		c0,116.5,0,232.8,0,349.3c0,23.9,4,40.9,12,51.5c8.3,9.2,24.5,14.7,47.2,16.4c0,4,0,8.1,0,12.3c-50.6,0-101.5,0-152.2,0
		c0-4,0-8.1,0-12.3c23.9-1.7,39.5-8.3,47.5-20.1c6.6-9.8,10-28.7,10-56.4c0-113.7,0-227,0-340.7c-10.9,0-22.2,0-33.1,0
		c-31.1,0-52,5.5-63.6,16.4c-11.5,10.6-20.6,34.2-26.4,72.3c-4.4,0-8.3,0-12.7,0c0.6-36.5,1.7-73.1,2.8-109.3c100.1,0,200,0,300.1,0
		C306.7,368.2,307.9,404.7,308.7,441.2L308.7,441.2z"/>
	<path fill="#231F20" d="M578,781.9c-36.2,0-72.3,0-108.5,0c0-3.4,0-6.9,0-10.3c15-1.7,25.6-6.6,31.1-13.6c7.2-9.2,10.9-27,10.9-52
		c0-39.7,0-79.5,0-119.4c0-55.6-17.3-82-51.5-80.3c-21.6,1.1-44.5,19.2-67,55.6c0,48.1,0,95.7,0,143.8c0,25,4,42.9,10.9,52
		c4.9,6.9,15.6,11.5,31.1,13.6c0,3.4,0,6.9,0,10.3c-37.3,0-74.5,0-111.9,0c0-3.4,0-6.9,0-10.3c16.1-2.5,26.7-7.8,32.8-15.8
		c4.9-8.1,7.8-24.5,7.8-49.5c0-102.4,0-204.9,0-307c0-27.6-10.9-40.9-33.1-40.9c-2.3,0-4.4,0-6.6,0c0-3.7,0-7.8,0-11.5
		c15-4.4,38.3-13.9,69.3-29.4c0,74.5,0,149.3,0,223.9c2-2.8,4-5.8,6.1-8.6c28.4-40.6,56.4-60.4,82.6-60.4c27,0,44.8,14.1,53.2,42.9
		c3.7,13,5.5,33.7,5.5,63.1c0,42.9,0,85.7,0,128.3c0,25,2.8,42,8.9,50.6c4.4,6.9,13.9,11.5,28.7,14.7C578,774.9,578,778.5,578,781.9
		L578,781.9z"/>
	<path fill="#231F20" d="M840.5,757.4c-16.1,4.4-38.3,13.3-66.5,27.6c0.6-23.3,1.1-46.7,1.7-69.6c-8.6,12.3-20.6,26.7-34.2,44
		c-19.2,17.8-38.3,27-56.4,27.6c-13.9,0-26.2-5.5-35.4-16.4c-13.9-15.6-20.4-39.2-20.4-71.1c0-55,0-110.2,0-165.2
		c0-32.5-13.3-48.9-39.5-50.6c0-3.1,0-6.1,0-9.2c23.1,0,46.1,0,69.3,0c0,72.8,0,145.5,0,218.4c0,34.8,16.1,52.6,48.6,52.6
		c17.3,0,33.9-8.3,49.8-26.2c9.2-9.8,14.4-23.9,14.4-42.9c0-47.2,0-94,0-141.3c0-15.8-2.8-26.7-7.8-33.7
		c-7.2-9.2-19.2-14.1-37.8-15.3c0-3.7,0-7.8,0-11.5c25,0,50.1,0,75.4,0c0,75.7,0,151.3,0,227c0,29.4,12.7,44,38.9,44
		C840.5,749.3,840.5,753.4,840.5,757.4L840.5,757.4z"/>
</g>
</svg>
