<?xml version="1.0" encoding="utf-8"?>
<!-- Generator: Adobe Illustrator 18.0.0, SVG Export Plug-In . SVG Version: 6.00 Build 0)  -->
<!DOCTYPE svg PUBLIC "-//W3C//DTD SVG 1.1//EN" "http://www.w3.org/Graphics/SVG/1.1/DTD/svg11.dtd">
<svg version="1.1" id="Layer_1" xmlns="http://www.w3.org/2000/svg" xmlns:xlink="http://www.w3.org/1999/xlink" x="0px" y="0px"
	 viewBox="0 253.5 595.3 334.9" enable-background="new 0 253.5 595.3 334.9" xml:space="preserve">
<g>
	<g>
		<g>
			<g>
				<defs>
					<rect id="SVGID_1_" y="253.5" width="595.3" height="334.9"/>
				</defs>
				<clipPath id="SVGID_2_">
					<use xlink:href="#SVGID_1_"  overflow="visible"/>
				</clipPath>
				<g clip-path="url(#SVGID_2_)">
					<text transform="matrix(1 0 0 1 -3.906250e-003 280.1458)" fill="#010101" font-family="'Calibri'" font-size="24.4126"> </text>
				</g>
			</g>
		</g>
	</g>
	<path fill="#410AB4" d="M218.3,343.2c-2.8,0-5.7,0-8.5,0c-4.3-26.9-10.6-43.9-19.1-51.9c-7.7-7.5-22.8-10.8-45-10.8
		c-7.5,0-15.1,0-22.8,0c0,82.4,0,164.6,0,247c0,16.9,2.8,28.9,8.5,36.4c5.9,6.5,17.3,10.4,33.4,11.6c0,2.8,0,5.7,0,8.7
		c-35.8,0-71.8,0-107.6,0c0-2.8,0-5.7,0-8.7c16.9-1.2,27.9-5.9,33.6-14.2c4.7-6.9,7.1-20.3,7.1-39.9c0-80.4,0-160.5,0-240.9
		c-7.7,0-15.7,0-23.4,0c-22,0-36.8,3.9-45,11.6c-8.1,7.5-14.6,24.2-18.7,51.1c-3.1,0-5.9,0-9,0c0.4-25.8,1.2-51.7,2-77.3
		c70.8,0,141.4,0,212.2,0C216.9,291.6,217.7,317.4,218.3,343.2L218.3,343.2z"/>
	<path fill="#598CC9" d="M408.7,584.1c-25.6,0-51.1,0-76.7,0c0-2.4,0-4.9,0-7.3c10.6-1.2,18.1-4.7,22-9.6c5.1-6.5,7.7-19.1,7.7-36.8
		c0-28.1,0-56.2,0-84.4c0-39.3-12.2-58-36.4-56.8c-15.3,0.8-31.5,13.6-47.4,39.3c0,34,0,67.7,0,101.7c0,17.7,2.8,30.3,7.7,36.8
		c3.5,4.9,11,8.1,22,9.6c0,2.4,0,4.9,0,7.3c-26.4,0-52.7,0-79.1,0c0-2.4,0-4.9,0-7.3c11.4-1.8,18.9-5.5,23.2-11.2
		c3.5-5.7,5.5-17.3,5.5-35c0-72.4,0-144.9,0-217.1c0-19.5-7.7-28.9-23.4-28.9c-1.6,0-3.1,0-4.7,0c0-2.6,0-5.5,0-8.1
		c10.6-3.1,27.1-9.8,49-20.8c0,52.7,0,105.6,0,158.3c1.4-2,2.8-4.1,4.3-6.1c20.1-28.7,39.9-42.7,58.4-42.7c19.1,0,31.7,10,37.6,30.3
		c2.6,9.2,3.9,23.8,3.9,44.6c0,30.3,0,60.6,0,90.7c0,17.7,2,29.7,6.3,35.8c3.1,4.9,9.8,8.1,20.3,10.4
		C408.7,579.2,408.7,581.7,408.7,584.1L408.7,584.1z"/>
	<path fill="#598CC9" d="M594.3,566.8c-11.4,3.1-27.1,9.4-47,19.5c0.4-16.5,0.8-33,1.2-49.2c-6.1,8.7-14.6,18.9-24.2,31.1
		c-13.6,12.6-27.1,19.1-39.9,19.5c-9.8,0-18.5-3.9-25-11.6c-9.8-11-14.4-27.7-14.4-50.3c0-38.9,0-77.9,0-116.8
		c0-23-9.4-34.6-27.9-35.8c0-2.2,0-4.3,0-6.5c16.3,0,32.6,0,49,0c0,51.5,0,102.9,0,154.4c0,24.6,11.4,37.2,34.4,37.2
		c12.2,0,24-5.9,35.2-18.5c6.5-6.9,10.2-16.9,10.2-30.3c0-33.4,0-66.5,0-99.9c0-11.2-2-18.9-5.5-23.8c-5.1-6.5-13.6-10-26.7-10.8
		c0-2.6,0-5.5,0-8.1c17.7,0,35.4,0,53.3,0c0,53.5,0,107,0,160.5c0,20.8,9,31.1,27.5,31.1C594.3,561.1,594.3,564,594.3,566.8
		L594.3,566.8z"/>
	<path fill="none" stroke="#010101" stroke-width="0.75" stroke-linecap="round" stroke-linejoin="round" stroke-miterlimit="8" d="
		M218.3,343.2c-2.8,0-5.7,0-8.5,0c-4.3-26.9-10.6-43.9-19.1-51.9c-7.7-7.5-22.8-10.8-45-10.8c-7.5,0-15.1,0-22.8,0
		c0,82.4,0,164.6,0,247c0,16.9,2.8,28.9,8.5,36.4c5.9,6.5,17.3,10.4,33.4,11.6c0,2.8,0,5.7,0,8.7c-35.8,0-71.8,0-107.6,0
		c0-2.8,0-5.7,0-8.7c16.9-1.2,27.9-5.9,33.6-14.2c4.7-6.9,7.1-20.3,7.1-39.9c0-80.4,0-160.5,0-240.9c-7.7,0-15.7,0-23.4,0
		c-22,0-36.8,3.9-45,11.6c-8.1,7.5-14.6,24.2-18.7,51.1c-3.1,0-5.9,0-9,0c0.4-25.8,1.2-51.7,2-77.3c70.8,0,141.4,0,212.2,0
		C216.9,291.6,217.7,317.4,218.3,343.2L218.3,343.2z"/>
	<path fill="#410AB4" d="M408.7,584.1c-25.6,0-51.1,0-76.7,0c0-2.4,0-4.9,0-7.3c10.6-1.2,18.1-4.7,22-9.6c5.1-6.5,7.7-19.1,7.7-36.8
		c0-28.1,0-56.2,0-84.4c0-39.3-12.2-58-36.4-56.8c-15.3,0.8-31.5,13.6-47.4,39.3c0,34,0,67.7,0,101.7c0,17.7,2.8,30.3,7.7,36.8
		c3.5,4.9,11,8.1,22,9.6c0,2.4,0,4.9,0,7.3c-26.4,0-52.7,0-79.1,0c0-2.4,0-4.9,0-7.3c11.4-1.8,18.9-5.5,23.2-11.2
		c3.5-5.7,5.5-17.3,5.5-35c0-72.4,0-144.9,0-217.1c0-19.5-7.7-28.9-23.4-28.9c-1.6,0-3.1,0-4.7,0c0-2.6,0-5.5,0-8.1
		c10.6-3.1,27.1-9.8,49-20.8c0,52.7,0,105.6,0,158.3c1.4-2,2.8-4.1,4.3-6.1c20.1-28.7,39.9-42.7,58.4-42.7c19.1,0,31.7,10,37.6,30.3
		c2.6,9.2,3.9,23.8,3.9,44.6c0,30.3,0,60.6,0,90.7c0,17.7,2,29.7,6.3,35.8c3.1,4.9,9.8,8.1,20.3,10.4
		C408.7,579.2,408.7,581.7,408.7,584.1L408.7,584.1z"/>
	<path fill="#410AB4" d="M594.3,566.8c-11.4,3.1-27.1,9.4-47,19.5c0.4-16.5,0.8-33,1.2-49.2c-6.1,8.7-14.6,18.9-24.2,31.1
		c-13.6,12.6-27.1,19.1-39.9,19.5c-9.8,0-18.5-3.9-25-11.6c-9.8-11-14.4-27.7-14.4-50.3c0-38.9,0-77.9,0-116.8
		c0-23-9.4-34.6-27.9-35.8c0-2.2,0-4.3,0-6.5c16.3,0,32.6,0,49,0c0,51.5,0,102.9,0,154.4c0,24.6,11.4,37.2,34.4,37.2
		c12.2,0,24-5.9,35.2-18.5c6.5-6.9,10.2-16.9,10.2-30.3c0-33.4,0-66.5,0-99.9c0-11.2-2-18.9-5.5-23.8c-5.1-6.5-13.6-10-26.7-10.8
		c0-2.6,0-5.5,0-8.1c17.7,0,35.4,0,53.3,0c0,53.5,0,107,0,160.5c0,20.8,9,31.1,27.5,31.1C594.3,561.1,594.3,564,594.3,566.8
		L594.3,566.8z"/>
</g>
</svg>
