<?xml version="1.0" encoding="utf-8"?>
<!-- Generator: Adobe Illustrator 18.0.0, SVG Export Plug-In . SVG Version: 6.00 Build 0)  -->
<!DOCTYPE svg PUBLIC "-//W3C//DTD SVG 1.1//EN" "http://www.w3.org/Graphics/SVG/1.1/DTD/svg11.dtd">
<svg version="1.1" id="Layer_1" xmlns="http://www.w3.org/2000/svg" xmlns:xlink="http://www.w3.org/1999/xlink" x="0px" y="0px"
	 viewBox="0 0 292.6 164.6" enable-background="new 0 0 292.6 164.6" xml:space="preserve">
<g>
	<g>
		<defs>
			<rect id="SVGID_1_" x="0" width="292.6" height="164.6"/>
		</defs>
		<clipPath id="SVGID_2_">
			<use xlink:href="#SVGID_1_"  overflow="visible"/>
		</clipPath>
		<g clip-path="url(#SVGID_2_)">
			<text transform="matrix(1 0 0 1 -2.151489e-003 13.0925)" fill="#010101" font-family="'Calibri'" font-size="12"> </text>
		</g>
	</g>
	<path fill-rule="evenodd" clip-rule="evenodd" fill="#598CC9" d="M107.3,44.1c-1.4,0-2.8,0-4.2,0c-2.1-13.2-5.2-21.6-9.4-25.5
		c-3.8-3.7-11.2-5.3-22.1-5.3c-3.7,0-7.4,0-11.2,0c0,40.5,0,80.9,0,121.4c0,8.3,1.4,14.2,4.2,17.9c2.9,3.2,8.5,5.1,16.4,5.7
		c0,1.4,0,2.8,0,4.3c-17.6,0-35.3,0-52.9,0c0-1.4,0-2.8,0-4.3c8.3-0.6,13.7-2.9,16.5-7c2.3-3.4,3.5-10,3.5-19.6
		c0-39.5,0-78.9,0-118.4c-3.8,0-7.7,0-11.5,0c-10.8,0-18.1,1.9-22.1,5.7c-4,3.7-7.2,11.9-9.2,25.1c-1.5,0-2.9,0-4.4,0
		C1.1,31.4,1.5,18.7,1.9,6.1c34.8,0,69.5,0,104.3,0C106.6,18.7,107,31.4,107.3,44.1L107.3,44.1z"/>
	<path fill-rule="evenodd" clip-rule="evenodd" fill="#598CC9" d="M200.9,162.5c-12.6,0-25.1,0-37.7,0c0-1.2,0-2.4,0-3.6
		c5.2-0.6,8.9-2.3,10.8-4.7c2.5-3.2,3.8-9.4,3.8-18.1c0-13.8,0-27.6,0-41.5c0-19.3-6-28.5-17.9-27.9c-7.5,0.4-15.5,6.7-23.3,19.3
		c0,16.7,0,33.3,0,50c0,8.7,1.4,14.9,3.8,18.1c1.7,2.4,5.4,4,10.8,4.7c0,1.2,0,2.4,0,3.6c-13,0-25.9,0-38.9,0c0-1.2,0-2.4,0-3.6
		c5.6-0.9,9.3-2.7,11.4-5.5c1.7-2.8,2.7-8.5,2.7-17.2c0-35.6,0-71.2,0-106.7c0-9.6-3.8-14.2-11.5-14.2c-0.8,0-1.5,0-2.3,0
		c0-1.3,0-2.7,0-4c5.2-1.5,13.3-4.8,24.1-10.2c0,25.9,0,51.9,0,77.8c0.7-1,1.4-2,2.1-3c9.9-14.1,19.6-21,28.7-21
		c9.4,0,15.6,4.9,18.5,14.9c1.3,4.5,1.9,11.7,1.9,21.9c0,14.9,0,29.8,0,44.6c0,8.7,1,14.6,3.1,17.6c1.5,2.4,4.8,4,10,5.1
		C200.9,160.1,200.9,161.3,200.9,162.5L200.9,162.5z"/>
	<path fill-rule="evenodd" clip-rule="evenodd" fill="#598CC9" d="M292.1,154c-5.6,1.5-13.3,4.6-23.1,9.6c0.2-8.1,0.4-16.2,0.6-24.2
		c-3,4.3-7.2,9.3-11.9,15.3c-6.7,6.2-13.3,9.4-19.6,9.6c-4.8,0-9.1-1.9-12.3-5.7c-4.8-5.4-7.1-13.6-7.1-24.7c0-19.1,0-38.3,0-57.4
		c0-11.3-4.6-17-13.7-17.6c0-1.1,0-2.1,0-3.2c8,0,16,0,24.1,0c0,25.3,0,50.6,0,75.9c0,12.1,5.6,18.3,16.9,18.3
		c6,0,11.8-2.9,17.3-9.1c3.2-3.4,5-8.3,5-14.9c0-16.4,0-32.7,0-49.1c0-5.5-1-9.3-2.7-11.7c-2.5-3.2-6.7-4.9-13.1-5.3
		c0-1.3,0-2.7,0-4c8.7,0,17.4,0,26.2,0c0,26.3,0,52.6,0,78.9c0,10.2,4.4,15.3,13.5,15.3C292.1,151.2,292.1,152.6,292.1,154
		L292.1,154z"/>
	<path fill="none" stroke="#010101" stroke-width="0.75" stroke-linecap="round" stroke-linejoin="round" stroke-miterlimit="8" d="
		M107.3,44.1c-1.4,0-2.8,0-4.2,0c-2.1-13.2-5.2-21.6-9.4-25.5c-3.8-3.7-11.2-5.3-22.1-5.3c-3.7,0-7.4,0-11.2,0
		c0,40.5,0,80.9,0,121.4c0,8.3,1.4,14.2,4.2,17.9c2.9,3.2,8.5,5.1,16.4,5.7c0,1.4,0,2.8,0,4.3c-17.6,0-35.3,0-52.9,0
		c0-1.4,0-2.8,0-4.3c8.3-0.6,13.7-2.9,16.5-7c2.3-3.4,3.5-10,3.5-19.6c0-39.5,0-78.9,0-118.4c-3.8,0-7.7,0-11.5,0
		c-10.8,0-18.1,1.9-22.1,5.7c-4,3.7-7.2,11.9-9.2,25.1c-1.5,0-2.9,0-4.4,0C1.1,31.4,1.5,18.7,1.9,6.1c34.8,0,69.5,0,104.3,0
		C106.6,18.7,107,31.4,107.3,44.1L107.3,44.1z"/>
	<path fill="none" stroke="#010101" stroke-width="0.75" stroke-linecap="round" stroke-linejoin="round" stroke-miterlimit="8" d="
		M200.9,162.5c-12.6,0-25.1,0-37.7,0c0-1.2,0-2.4,0-3.6c5.2-0.6,8.9-2.3,10.8-4.7c2.5-3.2,3.8-9.4,3.8-18.1c0-13.8,0-27.6,0-41.5
		c0-19.3-6-28.5-17.9-27.9c-7.5,0.4-15.5,6.7-23.3,19.3c0,16.7,0,33.3,0,50c0,8.7,1.4,14.9,3.8,18.1c1.7,2.4,5.4,4,10.8,4.7
		c0,1.2,0,2.4,0,3.6c-13,0-25.9,0-38.9,0c0-1.2,0-2.4,0-3.6c5.6-0.9,9.3-2.7,11.4-5.5c1.7-2.8,2.7-8.5,2.7-17.2
		c0-35.6,0-71.2,0-106.7c0-9.6-3.8-14.2-11.5-14.2c-0.8,0-1.5,0-2.3,0c0-1.3,0-2.7,0-4c5.2-1.5,13.3-4.8,24.1-10.2
		c0,25.9,0,51.9,0,77.8c0.7-1,1.4-2,2.1-3c9.9-14.1,19.6-21,28.7-21c9.4,0,15.6,4.9,18.5,14.9c1.3,4.5,1.9,11.7,1.9,21.9
		c0,14.9,0,29.8,0,44.6c0,8.7,1,14.6,3.1,17.6c1.5,2.4,4.8,4,10,5.1C200.9,160.1,200.9,161.3,200.9,162.5L200.9,162.5z"/>
	<path fill="none" stroke="#010101" stroke-width="0.75" stroke-linecap="round" stroke-linejoin="round" stroke-miterlimit="8" d="
		M292.1,154c-5.6,1.5-13.3,4.6-23.1,9.6c0.2-8.1,0.4-16.2,0.6-24.2c-3,4.3-7.2,9.3-11.9,15.3c-6.7,6.2-13.3,9.4-19.6,9.6
		c-4.8,0-9.1-1.9-12.3-5.7c-4.8-5.4-7.1-13.6-7.1-24.7c0-19.1,0-38.3,0-57.4c0-11.3-4.6-17-13.7-17.6c0-1.1,0-2.1,0-3.2
		c8,0,16,0,24.1,0c0,25.3,0,50.6,0,75.9c0,12.1,5.6,18.3,16.9,18.3c6,0,11.8-2.9,17.3-9.1c3.2-3.4,5-8.3,5-14.9
		c0-16.4,0-32.7,0-49.1c0-5.5-1-9.3-2.7-11.7c-2.5-3.2-6.7-4.9-13.1-5.3c0-1.3,0-2.7,0-4c8.7,0,17.4,0,26.2,0c0,26.3,0,52.6,0,78.9
		c0,10.2,4.4,15.3,13.5,15.3C292.1,151.2,292.1,152.6,292.1,154L292.1,154z"/>
</g>
</svg>
