<?xml version="1.0" encoding="utf-8"?>
<!-- Generator: Adobe Illustrator 18.0.0, SVG Export Plug-In . SVG Version: 6.00 Build 0)  -->
<!DOCTYPE svg PUBLIC "-//W3C//DTD SVG 1.1//EN" "http://www.w3.org/Graphics/SVG/1.1/DTD/svg11.dtd">
<svg version="1.1" id="Layer_1" xmlns="http://www.w3.org/2000/svg" xmlns:xlink="http://www.w3.org/1999/xlink" x="0px" y="0px"
	 viewBox="0 0 773.2 771.8" enable-background="new 0 0 773.2 771.8" xml:space="preserve">
<circle fill="#FFFFFF" stroke="#000000" stroke-miterlimit="10" cx="384.9" cy="385.9" r="378.9"/>
<path fill="none" stroke="#000000" stroke-miterlimit="10" d="M384.9,764.8"/>
<path fill="none" stroke="#000000" stroke-miterlimit="10" d="M384.9,426"/>
<path fill="none" stroke="#000000" stroke-miterlimit="10" d="M384.9,426"/>
<path fill="none" stroke="#000000" stroke-miterlimit="10" d="M384.9,365.3"/>
<path fill="none" stroke="#000000" stroke-miterlimit="10" d="M384.9,348"/>
<path fill="none" stroke="#000000" stroke-miterlimit="10" d="M6,385.9"/>
<path fill="none" stroke="#000000" stroke-miterlimit="10" d="M763.8,385.9"/>
<path fill="none" stroke="#000000" stroke-miterlimit="10" d="M475.7,345.1h-91.1h-90.5c-6.6,0-12,5.4-12,12v57.7
	c0,6.6,5.4,12,12,12h181.6c6.6,0,12-5.4,12-12v-57.7C487.7,350.5,482.3,345.1,475.7,345.1z"/>
<path fill="none" stroke="#000000" stroke-miterlimit="10" d="M-167.9,235.2h-206.3v-86.6c0-6.6-5.4-12-12-12h-221.1
	c-6.6,0-12,5.4-12,12V295c0,6.6,5.4,12,12,12h137.3v107.7c0,6.6,5.4,12,12,12h290.1c6.6,0,12-5.4,12-12V247.2
	C-155.9,240.6-161.3,235.2-167.9,235.2z"/>
<line fill="none" stroke="#000000" stroke-miterlimit="10" x1="384.6" y1="345.1" x2="384.9" y2="7"/>
<line fill="none" stroke="#000000" stroke-miterlimit="10" x1="384.9" y1="426" x2="384.9" y2="764.8"/>
<line fill="none" stroke="#000000" stroke-miterlimit="10" x1="6" y1="385.9" x2="282.1" y2="385.9"/>
<line fill="none" stroke="#000000" stroke-miterlimit="10" x1="487.7" y1="385.9" x2="763.8" y2="385.9"/>
<g>
	<circle fill="none" stroke="#000000" stroke-miterlimit="10" cx="264.3" cy="253" r="39.4"/>
	<polygon fill="none" stroke="#000000" stroke-miterlimit="10" points="263.6,176.1 256.6,202.9 272,202.9 	"/>
	<polygon fill="none" stroke="#000000" stroke-miterlimit="10" points="265,329.8 272,303 256.6,303 	"/>
	<polygon fill="none" stroke="#000000" stroke-miterlimit="10" points="185.4,253.7 212.2,260.8 212.2,245.3 	"/>
	<polygon fill="none" stroke="#000000" stroke-miterlimit="10" points="342.4,252.3 315.6,245.3 315.6,260.8 	"/>
	<polygon fill="none" stroke="#000000" stroke-miterlimit="10" points="199.7,190.9 213.7,214.8 224.6,203.9 	"/>
	<polygon fill="none" stroke="#000000" stroke-miterlimit="10" points="200.2,315.5 224.1,301.5 213.2,290.6 	"/>
	<polygon fill="none" stroke="#000000" stroke-miterlimit="10" points="326.8,316 317.2,290 304.5,298.9 	"/>
	<polygon fill="none" stroke="#000000" stroke-miterlimit="10" points="327.6,190.4 303.7,204.4 314.6,215.3 	"/>
</g>
<path fill="none" stroke="#000000" stroke-miterlimit="10" d="M553.6,512.9"/>
<path fill="none" stroke="#000000" stroke-miterlimit="10" d="M542.9,523.6"/>
<path fill="none" stroke="#000000" stroke-miterlimit="10" d="M539.9,522"/>
<path fill="none" stroke="#000000" stroke-miterlimit="10" d="M525.4,518.1"/>
<path fill="none" stroke="#000000" stroke-miterlimit="10" d="M538.4,523.5"/>
<path fill="none" stroke="#000000" stroke-miterlimit="10" d="M527.7,512.8"/>
<g>
	<line fill="none" stroke="#000000" stroke-miterlimit="10" x1="518.8" y1="426.3" x2="518.8" y2="580"/>
	<line fill="none" stroke="#000000" stroke-miterlimit="10" x1="595.6" y1="503.2" x2="442" y2="503.2"/>
	<line fill="none" stroke="#000000" stroke-miterlimit="10" x1="464.5" y1="448.8" x2="573.1" y2="557.5"/>
	<line fill="none" stroke="#000000" stroke-miterlimit="10" x1="464.5" y1="557.5" x2="573.1" y2="448.8"/>
	<g>
		<line fill="none" stroke="#000000" stroke-miterlimit="10" x1="479.5" y1="478.9" x2="494.6" y2="478.9"/>
		<g>
			<polyline fill="none" stroke="#000000" stroke-miterlimit="10" points="464.5,463.9 479.5,463.9 479.5,448.8 			"/>
			<line fill="none" stroke="#000000" stroke-miterlimit="10" x1="494.6" y1="479" x2="494.6" y2="463.9"/>
		</g>
	</g>
	<g>
		<line fill="none" stroke="#000000" stroke-miterlimit="10" x1="483.9" y1="513.8" x2="494.6" y2="503.1"/>
		<g>
			<polyline fill="none" stroke="#000000" stroke-miterlimit="10" points="462.6,513.8 473.3,503.2 462.6,492.5 			"/>
			<line fill="none" stroke="#000000" stroke-miterlimit="10" x1="494.6" y1="503.2" x2="484" y2="492.5"/>
		</g>
	</g>
	<g>
		<line fill="none" stroke="#000000" stroke-miterlimit="10" x1="494.5" y1="542.4" x2="494.5" y2="527.3"/>
		<g>
			<polyline fill="none" stroke="#000000" stroke-miterlimit="10" points="479.5,557.5 479.5,542.4 464.5,542.4 			"/>
			<line fill="none" stroke="#000000" stroke-miterlimit="10" x1="494.6" y1="527.3" x2="479.5" y2="527.3"/>
		</g>
	</g>
	<g>
		<line fill="none" stroke="#000000" stroke-miterlimit="10" x1="558.1" y1="527.4" x2="543" y2="527.4"/>
		<g>
			<polyline fill="none" stroke="#000000" stroke-miterlimit="10" points="573.1,542.4 558.1,542.4 558.1,557.5 			"/>
			<line fill="none" stroke="#000000" stroke-miterlimit="10" x1="543" y1="527.3" x2="543" y2="542.4"/>
		</g>
	</g>
	<g>
		<line fill="none" stroke="#000000" stroke-miterlimit="10" x1="553.7" y1="492.6" x2="543" y2="503.2"/>
		<g>
			<polyline fill="none" stroke="#000000" stroke-miterlimit="10" points="575,492.5 564.3,503.2 575,513.8 			"/>
			<line fill="none" stroke="#000000" stroke-miterlimit="10" x1="543" y1="503.2" x2="553.6" y2="513.8"/>
		</g>
	</g>
	<g>
		<line fill="none" stroke="#000000" stroke-miterlimit="10" x1="543.1" y1="463.9" x2="543.1" y2="479"/>
		<g>
			<polyline fill="none" stroke="#000000" stroke-miterlimit="10" points="558.1,448.8 558.1,463.9 573.1,463.9 			"/>
			<line fill="none" stroke="#000000" stroke-miterlimit="10" x1="543" y1="479" x2="558.1" y2="479"/>
		</g>
	</g>
	<g>
		<line fill="none" stroke="#000000" stroke-miterlimit="10" x1="529.4" y1="537.1" x2="518.7" y2="526.5"/>
		<g>
			<polyline fill="none" stroke="#000000" stroke-miterlimit="10" points="529.5,558.4 518.8,547.7 508.1,558.4 			"/>
			<line fill="none" stroke="#000000" stroke-miterlimit="10" x1="518.8" y1="526.4" x2="508.1" y2="537.1"/>
		</g>
	</g>
	<g>
		<line fill="none" stroke="#000000" stroke-miterlimit="10" x1="508.1" y1="469.2" x2="518.8" y2="479.9"/>
		<g>
			<polyline fill="none" stroke="#000000" stroke-miterlimit="10" points="508,447.9 518.7,458.6 529.4,447.9 			"/>
			<line fill="none" stroke="#000000" stroke-miterlimit="10" x1="518.7" y1="479.9" x2="529.4" y2="469.3"/>
		</g>
	</g>
</g>
<g>
	<polyline stroke="#000000" stroke-miterlimit="10" points="289.2,470 187.8,586.1 173.8,602.1 	"/>
	<path fill="none" stroke="#000000" stroke-miterlimit="10" d="M208.2,562.7c0,0-46.9-90.4-15.9-65.7c31,24.7,17.7-0.6,15.9-33
		c-1.8-32.4,14.7-19.7,25.4,0c10.8,19.7,12.2-46.8,12.2-46.8s27.5,18.6,30,34.1c2.4,15.5,26.7,4.2,14.8-12.7
		c-11.9-16.9,25.6,31.5,25.6,31.5s49.3,104.1,0,51.1s-18.3-1.6-1.4,14.9c16.9,16.6,14.2,34.6-24.2,5.5s-13.4,34-13.4,34
		s-12.1,24.8-43.6-0.1S208.2,562.7,208.2,562.7z"/>
	<line fill="none" stroke="#000000" stroke-miterlimit="10" x1="202.2" y1="523.6" x2="222" y2="546.9"/>
	<line fill="none" stroke="#000000" stroke-miterlimit="10" x1="252.9" y1="570" x2="222" y2="546.9"/>
	<line fill="none" stroke="#000000" stroke-miterlimit="10" x1="225.9" y1="478" x2="243.1" y2="522.7"/>
	<line fill="none" stroke="#000000" stroke-miterlimit="10" x1="259.9" y1="500" x2="304" y2="535.2"/>
	<line fill="none" stroke="#000000" stroke-miterlimit="10" x1="289.2" y1="470" x2="316.3" y2="500"/>
	<line fill="none" stroke="#000000" stroke-miterlimit="10" x1="275.8" y1="491.6" x2="259.9" y2="454"/>
</g>
<g>
	<path fill="none" stroke="#010101" stroke-miterlimit="10" d="M484.4,268.1c0,0-0.9-39.7,33.7-25.8c1.2,0.5,19.9,11,2,34.9
		c-1.4,1.9-22.7,11.8-34.4-6.9C485.2,269.6,484.8,268.9,484.4,268.1z"/>
	<path fill="none" stroke="#010101" stroke-miterlimit="10" d="M484.4,268.1l-17.3,8.4c0,0-36.7,21.4-5.3,46.2
		c3,2.4,19.3,11.7,34.5-5.2c0.8-0.9,10.9-10,8.9-36c0,0,2.8,33.9,23.9,45.9c1.3,0.7,33.6,7,33.6-24.2c0-2.1-6.3-27.8-37.1-35.5
		c0,0,48.7,16.9,57.8-14.3c9.1-31.2-36.9-44.9-57.5-15.5c-0.6,0.9-5.3,6.1-5.3,6.1s30.2-49.6,1.7-62.9
		c-28.5-13.3-40.9,16.5-39.7,17.5c1.2,1-4,16.5,13.7,42.6c0,0-33.1-36.1-56.6-16.3s10.3,42.2,10.3,42.2S470.4,272.3,484.4,268.1z"/>
</g>
<text transform="matrix(1 0 0 1 602.645 615.4928)" font-family="'MyriadPro-Regular'" font-size="36">JAN</text>
<text transform="matrix(1 0 0 1 441.9528 712.4502)" font-family="'MyriadPro-Regular'" font-size="36">DEC</text>
<text transform="matrix(1 0 0 1 671.1384 469.9956)" font-family="'MyriadPro-Regular'" font-size="36">FEB</text>
<text transform="matrix(1 0 0 1 105.5887 621.261)" font-family="'MyriadPro-Regular'" font-size="36">OCT</text>
<text transform="matrix(1 0 0 1 43.0959 316.3911)" font-family="'MyriadPro-Regular'" font-size="36">AUG</text>
<text transform="matrix(1 0 0 1 48.7299 463.934)" font-family="'MyriadPro-Regular'" font-size="36">SEP</text>
<text transform="matrix(1 0 0 1 267.8712 74.0888)" font-family="'MyriadPro-Regular'" font-size="36">JUN</text>
<text transform="matrix(1 0 0 1 267.8717 712.4504)" font-family="'MyriadPro-Regular'" font-size="36">NOV</text>
<text transform="matrix(1 0 0 1 122.4898 163.5747)" font-family="'MyriadPro-Regular'" font-size="36">JUL</text>
<text transform="matrix(1 0 0 1 584.6652 163.5749)" font-family="'MyriadPro-Regular'" font-size="36">APR</text>
<text transform="matrix(1 0 0 1 441.9529 74.0887)" font-family="'MyriadPro-Regular'" font-size="36">MAY</text>
<text transform="matrix(1 0 0 1 671.1386 324.109)" font-family="'MyriadPro-Regular'" font-size="36">MAR</text>
<text transform="matrix(1 0 0 1 364.3944 400.8641)" font-family="'MyriadPro-Regular'" font-size="48">20</text>
</svg>
