<?xml version="1.0" encoding="utf-8"?>
<!-- Generator: Adobe Illustrator 18.0.0, SVG Export Plug-In . SVG Version: 6.00 Build 0)  -->
<!DOCTYPE svg PUBLIC "-//W3C//DTD SVG 1.1//EN" "http://www.w3.org/Graphics/SVG/1.1/DTD/svg11.dtd">
<svg version="1.1" id="Layer_1" xmlns="http://www.w3.org/2000/svg" xmlns:xlink="http://www.w3.org/1999/xlink" x="0px" y="0px"
	 viewBox="4.1 128.7 584.4 584.4" enable-background="new 4.1 128.7 584.4 584.4" xml:space="preserve">
<circle fill="#00BAF2" stroke="#000000" stroke-miterlimit="10" cx="296.3" cy="420.9" r="291.7"/>
<path fill="none" stroke="#000000" stroke-miterlimit="10" d="M296.3,712.7"/>
<path fill="none" stroke="#000000" stroke-miterlimit="10" d="M296.3,451.8"/>
<path fill="none" stroke="#000000" stroke-miterlimit="10" d="M296.3,451.8"/>
<path fill="none" stroke="#000000" stroke-miterlimit="10" d="M296.3,405.1"/>
<path fill="none" stroke="#000000" stroke-miterlimit="10" d="M296.3,391.8"/>
<path fill="none" stroke="#000000" stroke-miterlimit="10" d="M4.6,420.9"/>
<path fill="none" stroke="#000000" stroke-miterlimit="10" d="M588,420.9"/>
<path fill="none" stroke="#000000" stroke-miterlimit="10" d="M366.2,389.5h-70.1h-69.7c-5.1,0-9.2,4.2-9.2,9.2v44.4
	c0,5.1,4.2,9.2,9.2,9.2h139.8c5.1,0,9.2-4.2,9.2-9.2v-44.4C375.5,393.7,371.3,389.5,366.2,389.5z"/>
<line fill="none" stroke="#000000" stroke-miterlimit="10" x1="296.1" y1="389.5" x2="296.3" y2="129.2"/>
<line fill="none" stroke="#000000" stroke-miterlimit="10" x1="296.3" y1="451.8" x2="296.3" y2="712.7"/>
<line fill="none" stroke="#000000" stroke-miterlimit="10" x1="4.6" y1="420.9" x2="217.2" y2="420.9"/>
<line fill="none" stroke="#000000" stroke-miterlimit="10" x1="375.5" y1="420.9" x2="588" y2="420.9"/>
<g>
	<circle fill="#E51E25" stroke="#000000" stroke-miterlimit="10" cx="203.5" cy="318.6" r="30.3"/>
	<polygon fill="#F2EA32" stroke="#000000" stroke-miterlimit="10" points="202.9,259.4 197.6,280.1 209.4,280.1 	"/>
	<polygon fill="#F2EA32" stroke="#000000" stroke-miterlimit="10" points="204,377.8 209.4,357.1 197.6,357.1 	"/>
	<polygon fill="#F2EA32" stroke="#000000" stroke-miterlimit="10" points="142.7,319.2 163.4,324.6 163.4,312.7 	"/>
	<polygon fill="#F2EA32" stroke="#000000" stroke-miterlimit="10" points="263.6,318.1 243,312.7 243,324.6 	"/>
	<polygon fill="#F2EA32" stroke="#000000" stroke-miterlimit="10" points="153.7,270.8 164.5,289.2 172.9,280.8 	"/>
	<polygon fill="#F2EA32" stroke="#000000" stroke-miterlimit="10" points="154.1,366.7 172.5,356 164.1,347.6 	"/>
	<polygon fill="#F2EA32" stroke="#000000" stroke-miterlimit="10" points="251.6,367.1 244.2,347.1 234.4,354 	"/>
	<polygon fill="#F2EA32" stroke="#000000" stroke-miterlimit="10" points="252.2,270.4 233.8,281.2 242.2,289.6 	"/>
</g>
<path fill="none" stroke="#000000" stroke-miterlimit="10" d="M426.2,518.7"/>
<path fill="none" stroke="#000000" stroke-miterlimit="10" d="M418,527"/>
<path fill="none" stroke="#000000" stroke-miterlimit="10" d="M415.7,525.7"/>
<path fill="none" stroke="#000000" stroke-miterlimit="10" d="M404.5,522.7"/>
<path fill="none" stroke="#000000" stroke-miterlimit="10" d="M414.5,526.9"/>
<path fill="none" stroke="#000000" stroke-miterlimit="10" d="M406.3,518.6"/>
<g>
	<line fill="none" stroke="#67469C" stroke-miterlimit="10" x1="399.4" y1="452" x2="399.4" y2="570.4"/>
	<line fill="none" stroke="#67469C" stroke-miterlimit="10" x1="458.5" y1="511.3" x2="340.3" y2="511.3"/>
	<line fill="none" stroke="#67469C" stroke-miterlimit="10" x1="357.6" y1="469.4" x2="441.2" y2="553.1"/>
	<line fill="none" stroke="#67469C" stroke-miterlimit="10" x1="357.6" y1="553.1" x2="441.2" y2="469.4"/>
	<g>
		<line fill="none" stroke="#67469C" stroke-miterlimit="10" x1="369.2" y1="492.5" x2="380.8" y2="492.5"/>
		<g>
			<polyline fill="none" stroke="#67469C" stroke-miterlimit="10" points="357.6,481 369.2,481 369.2,469.4 			"/>
			<line fill="none" stroke="#67469C" stroke-miterlimit="10" x1="380.8" y1="492.6" x2="380.8" y2="481"/>
		</g>
	</g>
	<g>
		<line fill="none" stroke="#67469C" stroke-miterlimit="10" x1="372.6" y1="519.4" x2="380.8" y2="511.2"/>
		<g>
			<polyline fill="none" stroke="#67469C" stroke-miterlimit="10" points="356.2,519.4 364.4,511.3 356.2,503 			"/>
			<line fill="none" stroke="#67469C" stroke-miterlimit="10" x1="380.8" y1="511.3" x2="372.6" y2="503"/>
		</g>
	</g>
	<g>
		<line fill="none" stroke="#67469C" stroke-miterlimit="10" x1="380.7" y1="541.4" x2="380.7" y2="529.8"/>
		<g>
			<polyline fill="none" stroke="#67469C" stroke-miterlimit="10" points="369.2,553.1 369.2,541.4 357.6,541.4 			"/>
			<line fill="none" stroke="#67469C" stroke-miterlimit="10" x1="380.8" y1="529.8" x2="369.2" y2="529.8"/>
		</g>
	</g>
	<g>
		<line fill="none" stroke="#67469C" stroke-miterlimit="10" x1="429.7" y1="529.9" x2="418.1" y2="529.9"/>
		<g>
			<polyline fill="none" stroke="#67469C" stroke-miterlimit="10" points="441.2,541.4 429.7,541.4 429.7,553.1 			"/>
			<line fill="none" stroke="#67469C" stroke-miterlimit="10" x1="418.1" y1="529.8" x2="418.1" y2="541.4"/>
		</g>
	</g>
	<g>
		<line fill="none" stroke="#67469C" stroke-miterlimit="10" x1="426.3" y1="503.1" x2="418.1" y2="511.3"/>
		<g>
			<polyline fill="none" stroke="#67469C" stroke-miterlimit="10" points="442.7,503 434.4,511.3 442.7,519.4 			"/>
			<line fill="none" stroke="#67469C" stroke-miterlimit="10" x1="418.1" y1="511.3" x2="426.2" y2="519.4"/>
		</g>
	</g>
	<g>
		<line fill="none" stroke="#67469C" stroke-miterlimit="10" x1="418.1" y1="481" x2="418.1" y2="492.6"/>
		<g>
			<polyline fill="none" stroke="#67469C" stroke-miterlimit="10" points="429.7,469.4 429.7,481 441.2,481 			"/>
			<line fill="none" stroke="#67469C" stroke-miterlimit="10" x1="418.1" y1="492.6" x2="429.7" y2="492.6"/>
		</g>
	</g>
	<g>
		<line fill="none" stroke="#67469C" stroke-miterlimit="10" x1="407.6" y1="537.4" x2="399.3" y2="529.2"/>
		<g>
			<polyline fill="none" stroke="#67469C" stroke-miterlimit="10" points="407.7,553.8 399.4,545.5 391.2,553.8 			"/>
			<line fill="none" stroke="#67469C" stroke-miterlimit="10" x1="399.4" y1="529.1" x2="391.2" y2="537.4"/>
		</g>
	</g>
	<g>
		<line fill="none" stroke="#67469C" stroke-miterlimit="10" x1="391.2" y1="485.1" x2="399.4" y2="493.3"/>
		<g>
			<polyline fill="none" stroke="#67469C" stroke-miterlimit="10" points="391.1,468.7 399.3,476.9 407.6,468.7 			"/>
			<line fill="none" stroke="#67469C" stroke-miterlimit="10" x1="399.3" y1="493.3" x2="407.6" y2="485.2"/>
		</g>
	</g>
</g>
<g>
	<path fill="#FBAA19" stroke="#000000" stroke-miterlimit="10" d="M160.3,557.1c0,0-36.1-69.6-12.2-50.6c23.9,19,13.6-0.5,12.2-25.4
		c-1.4-24.9,11.3-15.2,19.6,0c8.3,15.2,9.4-36,9.4-36s21.2,14.3,23.1,26.3c1.8,11.9,20.6,3.2,11.4-9.8c-9.2-13,19.7,24.3,19.7,24.3
		s38,80.1,0,39.3s-14.1-1.2-1.1,11.5c13,12.8,10.9,26.6-18.6,4.2S213.4,567,213.4,567s-9.3,19.1-33.6-0.1
		C155.6,547.7,160.3,557.1,160.3,557.1z"/>
	<polyline stroke="#000000" stroke-miterlimit="10" points="222.7,485.7 144.6,575.1 133.8,587.4 	"/>
	<line fill="none" stroke="#000000" stroke-miterlimit="10" x1="155.7" y1="527" x2="170.9" y2="544.9"/>
	<line fill="none" stroke="#000000" stroke-miterlimit="10" x1="194.7" y1="562.7" x2="170.9" y2="544.9"/>
	<line fill="none" stroke="#000000" stroke-miterlimit="10" x1="173.9" y1="491.9" x2="187.2" y2="526.3"/>
	<line fill="none" stroke="#000000" stroke-miterlimit="10" x1="200.1" y1="508.8" x2="234" y2="535.9"/>
	<line fill="none" stroke="#000000" stroke-miterlimit="10" x1="222.7" y1="485.7" x2="243.5" y2="508.8"/>
	<line fill="none" stroke="#000000" stroke-miterlimit="10" x1="212.3" y1="502.3" x2="200.1" y2="473.4"/>
</g>
<g>
	<path fill="#9ACB4B" stroke="#010101" stroke-miterlimit="10" d="M372.9,330.3l-13.3,6.5c0,0-28.3,16.5-4.1,35.6
		c2.3,1.8,14.9,9,26.6-4c0.6-0.7,8.4-7.7,6.9-27.7c0,0,2.2,26.1,18.4,35.3c1,0.5,25.9,5.4,25.9-18.6c0-1.6-4.9-21.4-28.6-27.3
		c0,0,37.5,13,44.5-11c7-24-28.4-34.6-44.3-11.9c-0.5,0.7-4.1,4.7-4.1,4.7s23.3-38.2,1.3-48.4c-21.9-10.2-31.5,12.7-30.6,13.5
		c0.9,0.8-3.1,12.7,10.5,32.8c0,0-25.5-27.8-43.6-12.5c-18.1,15.2,7.9,32.5,7.9,32.5S362.2,333.5,372.9,330.3z"/>
	<path fill="#F2EA32" stroke="#000000" stroke-miterlimit="10" d="M372.9,330.3c0,0-0.7-30.6,25.9-19.9c0.9,0.4,15.3,8.5,1.5,26.9
		c-1.1,1.5-17.5,9.1-26.5-5.3C373.6,331.4,373.2,330.9,372.9,330.3z"/>
</g>
<text transform="matrix(1 0 0 1 463.9707 597.7064)" font-family="'MyriadPro-Regular'" font-size="27.7161">JAN</text>
<text transform="matrix(1 0 0 1 340.2558 672.353)" font-family="'MyriadPro-Regular'" font-size="27.7161">DEC</text>
<text transform="matrix(1 0 0 1 516.7031 485.6898)" font-family="'MyriadPro-Regular'" font-size="27.7161">FEB</text>
<text transform="matrix(1 0 0 1 81.292 602.1478)" font-family="'MyriadPro-Regular'" font-size="27.7161">OCT</text>
<text transform="matrix(1 0 0 1 33.1791 367.431)" font-family="'MyriadPro-Regular'" font-size="27.7161">AUG</text>
<text transform="matrix(1 0 0 1 37.5166 481.0228)" font-family="'MyriadPro-Regular'" font-size="27.7161">SEP</text>
<text transform="matrix(1 0 0 1 206.2314 180.8841)" fill="#B85E27" stroke="#A15224" stroke-miterlimit="10" font-family="'MyriadPro-Regular'" font-size="27.7161">JUN</text>
<text transform="matrix(1 0 0 1 206.2323 672.3529)" font-family="'MyriadPro-Regular'" font-size="27.7161">NOV</text>
<text transform="matrix(1 0 0 1 94.3036 249.7787)" font-family="'MyriadPro-Regular'" font-size="27.7161">JUL</text>
<text transform="matrix(1 0 0 1 450.1288 249.7787)" font-family="'MyriadPro-Regular'" font-size="27.7161">APR</text>
<text transform="matrix(1 0 0 1 340.2558 180.8841)" font-family="'MyriadPro-Regular'" font-size="27.7161">MAY</text>
<text transform="matrix(1 0 0 1 516.7031 373.3729)" font-family="'MyriadPro-Regular'" font-size="27.7161">MAR</text>
<g>
	
		<text transform="matrix(1 0 0 1 280.5439 432.4662)" fill="#B85E27" stroke="#A15224" stroke-miterlimit="10" font-family="'MyriadPro-Regular'" font-size="27.7161">20</text>
</g>
</svg>
