<?xml version="1.0" encoding="utf-8"?>
<!-- Generator: Adobe Illustrator 18.0.0, SVG Export Plug-In . SVG Version: 6.00 Build 0)  -->
<!DOCTYPE svg PUBLIC "-//W3C//DTD SVG 1.1//EN" "http://www.w3.org/Graphics/SVG/1.1/DTD/svg11.dtd">
<svg version="1.1" id="Layer_1" xmlns="http://www.w3.org/2000/svg" xmlns:xlink="http://www.w3.org/1999/xlink" x="0px" y="0px"
	 viewBox="21.4 130.7 305 379" enable-background="new 21.4 130.7 305 379" xml:space="preserve">
<g>
	<g>
		<g>
			<path fill="#F04E2A" d="M173.8,216.7c-36.6,0-66.5,29.8-66.5,66.6c0,36.7,29.8,66.6,66.5,66.6s66.5-29.8,66.5-66.6
				C240.3,246.5,210.4,216.7,173.8,216.7z M173.8,330.8c-26.3,0-47.5-21.2-47.5-47.5c0-26.3,21.2-47.5,47.5-47.5
				s47.5,21.2,47.5,47.5C221.3,309.6,200.1,330.8,173.8,330.8z M173.8,197.8c5.2,0,9.5-4.2,9.5-9.5v-19.1c0-5.2-4.2-9.5-9.5-9.5
				c-5.2,0-9.5,4.2-9.5,9.5v19.1C164.3,193.5,168.6,197.8,173.8,197.8z M173.8,368.8c-5.2,0-9.5,4.2-9.5,9.5v19.1
				c0,5.2,4.2,9.5,9.5,9.5c5.2,0,9.5-4.2,9.5-9.5v-19.1C183.3,373,179.1,368.8,173.8,368.8z M247.7,222.8l13.4-13.4
				c3.8-3.8,3.8-9.7,0-13.4c-3.8-3.8-9.7-3.8-13.4,0l-13.4,13.4c-3.8,3.8-3.8,9.7,0,13.4C238,226.6,243.9,226.6,247.7,222.8z
				 M100,343.8l-13.4,13.4c-3.8,3.8-3.8,9.7,0,13.4c3.8,3.8,9.7,3.8,13.4,0l13.4-13.4c3.8-3.8,3.8-9.7,0-13.4S103.7,340,100,343.8z
				 M88.4,283.2c0-5.2-4.2-9.5-9.5-9.5H59.9c-5.2,0-9.5,4.2-9.5,9.5c0,5.2,4.2,9.5,9.5,9.5h19.1C84.1,292.8,88.4,288.5,88.4,283.2z
				 M287.9,273.8h-19c-5.2,0-9.5,4.2-9.5,9.5c0,5.2,4.2,9.5,9.5,9.5h19c5.2,0,9.5-4.2,9.5-9.5C297.3,278,293.1,273.8,287.9,273.8z
				 M99.9,222.8c3.8,3.8,9.7,3.8,13.4,0s3.8-9.7,0-13.4l-13.4-13.4c-3.8-3.8-9.7-3.8-13.4,0s-3.8,9.7,0,13.4L99.9,222.8z
				 M247.8,343.8c-3.8-3.8-9.7-3.8-13.4,0c-3.8,3.8-3.8,9.7,0,13.4l13.4,13.4c3.8,3.8,9.7,3.8,13.4,0c3.8-3.8,3.8-9.7,0-13.4
				L247.8,343.8z"/>
		</g>
	</g>
	<circle fill="none" stroke="#231F20" stroke-width="5" stroke-miterlimit="10" cx="173.9" cy="283.2" r="150"/>
</g>
<text transform="matrix(1 0 0 1 113.8044 497.7758)" font-family="'MyriadPro-Regular'" font-size="48">Today</text>
</svg>
