<?xml version="1.0" encoding="utf-8"?>
<!-- Generator: Adobe Illustrator 18.0.0, SVG Export Plug-In . SVG Version: 6.00 Build 0)  -->
<!DOCTYPE svg PUBLIC "-//W3C//DTD SVG 1.1//EN" "http://www.w3.org/Graphics/SVG/1.1/DTD/svg11.dtd">
<svg version="1.1" id="Layer_1" xmlns="http://www.w3.org/2000/svg" xmlns:xlink="http://www.w3.org/1999/xlink" x="0px" y="0px"
	 viewBox="0 0 298.1 184.3" enable-background="new 0 0 298.1 184.3" xml:space="preserve">
<g>
	<g>
		<defs>
			<rect id="SVGID_1_" x="0" y="8.8" width="298.1" height="175.6"/>
		</defs>
		<clipPath id="SVGID_2_">
			<use xlink:href="#SVGID_1_"  overflow="visible"/>
		</clipPath>
		<g clip-path="url(#SVGID_2_)">
			<text transform="matrix(1 0 0 1 1.112212e-003 21.842)" fill="#010101" font-family="'Calibri'" font-size="12"> </text>
		</g>
	</g>
	<path fill-rule="evenodd" clip-rule="evenodd" fill="#366092" d="M47.5,178c-15.1,0-30.2,0-45.4,0c0-1.3,0-2.7,0-4
		c6-0.2,10.4-1.4,12.6-3.2c3.4-2.9,5.2-8.3,5.2-16.1c0-33.3,0-66.6,0-99.9c0-7.6-2.4-11.5-7.1-11.5c-2.9,0-7.1,1.2-12.4,3.6
		c0-1.1,0-2.1,0-3.2c9.7-5.5,19.5-10.8,29.1-16.3c0,43.7,0,87.4,0,131.1c0,5.8,1.4,9.8,4.1,12.3c2.7,2.2,7.4,3.2,13.8,3.2
		C47.5,175.3,47.5,176.6,47.5,178L47.5,178z"/>
	<path fill-rule="evenodd" clip-rule="evenodd" fill="#366092" d="M139.6,31.4c-11.7,49.4-24.1,98.6-35.9,148c-3.2,0-6.3,0-9.5,0
		c11.8-46.5,24.3-92.8,36-139.4c-12.8,0-25.5,0-38.3,0c-5.2,0-9.3,2-12.2,6c-0.3,0.6-2.8,5.6-7.4,15.1c-1.3-0.2-2.6-0.4-4-0.6
		c2.3-7.4,4.8-14.8,7.1-22.2c0.8-3,1.6-6,2.4-9.1c20.6,0,41.2,0,61.7,0C139.6,30,139.6,30.7,139.6,31.4L139.6,31.4z"/>
	<path fill-rule="evenodd" clip-rule="evenodd" fill="#366092" d="M284.2,30.1c3,12.2,6.1,24.3,9.1,36.5c-1,0.5-2,0.9-2.9,1.4
		c-1.3-2.6-2.7-5.2-4-7.9c-4.6-8.7-9.7-15.1-15-18.9c-6.2-4.1-13.6-6-22.3-6.2c-8.5,0-16.1,3.6-22.9,10.9
		c-6,6.1-10.4,13.7-13.1,22.8c-3.6,11.1-5.5,23.4-5.5,37.3c0,15.3,2.3,28,6.6,38.3c3.9,8.7,8.5,15.5,13.8,20.3
		c6.7,6.7,15.3,9.9,25.9,9.9c7.8,0,14.9-2.8,21.6-8.7c6.7-5.9,13.2-15.3,19.3-28.4c0.9,0.3,1.7,0.5,2.6,0.8
		c-4.2,12.5-9.2,22.1-14.5,28.8c-5.8,7.3-11.4,12-16.7,14.3c-4.5,1.8-9.8,2.8-16.2,2.8c-10,0-18.7-3.1-26-9.5
		c-9.1-6.9-16.3-16.5-21.2-28.8c-3.9-11.1-5.9-23.6-5.9-37.3c0-15.1,2.1-28.6,6-40.5c4.1-11.7,11-21.9,20-30.6
		c8.4-5.5,17.2-8.1,26.4-8.1c5,0,10.4,1,15.9,3c4.5,1.8,7.4,2.6,8.8,2.6C276.8,35,280.2,33.4,284.2,30.1L284.2,30.1z M178.6,9.2
		c5.2,0,9.7,2.2,13.6,6.6c3.9,4.7,5.9,9.9,5.9,16.1c0,5.8-1.9,11-5.9,15.7c-3.9,4.5-8.5,6.6-13.6,6.6c-5.2,0-9.7-2.2-13.6-6.6
		c-3.7-4.7-5.7-9.9-5.7-15.7c0-6.2,1.9-11.4,5.7-16.1C168.9,11.4,173.4,9.2,178.6,9.2L178.6,9.2z M178.6,49.7c4,0,7.6-1.8,10.7-5.4
		c2.9-3.7,4.5-7.6,4.5-12.3c0-4.8-1.6-9-4.5-12.7c-3.1-3.5-6.7-5-10.7-5c-4.1,0-7.8,1.6-10.7,5c-2.9,3.7-4.5,7.9-4.5,12.7
		c0,4.6,1.6,8.6,4.5,12.3C170.8,47.9,174.5,49.7,178.6,49.7L178.6,49.7z"/>
	<path fill="none" stroke="#010101" stroke-width="0.75" stroke-linecap="round" stroke-linejoin="round" stroke-miterlimit="8" d="
		M47.5,178c-15.1,0-30.2,0-45.4,0c0-1.3,0-2.7,0-4c6-0.2,10.4-1.4,12.6-3.2c3.4-2.9,5.2-8.3,5.2-16.1c0-33.3,0-66.6,0-99.9
		c0-7.6-2.4-11.5-7.1-11.5c-2.9,0-7.1,1.2-12.4,3.6c0-1.1,0-2.1,0-3.2c9.7-5.5,19.5-10.8,29.1-16.3c0,43.7,0,87.4,0,131.1
		c0,5.8,1.4,9.8,4.1,12.3c2.7,2.2,7.4,3.2,13.8,3.2C47.5,175.3,47.5,176.6,47.5,178L47.5,178z"/>
	<path fill="none" stroke="#010101" stroke-width="0.75" stroke-linecap="round" stroke-linejoin="round" stroke-miterlimit="8" d="
		M139.6,31.4c-11.7,49.4-24.1,98.6-35.9,148c-3.2,0-6.3,0-9.5,0c11.8-46.5,24.3-92.8,36-139.4c-12.8,0-25.5,0-38.3,0
		c-5.2,0-9.3,2-12.2,6c-0.3,0.6-2.8,5.6-7.4,15.1c-1.3-0.2-2.6-0.4-4-0.6c2.3-7.4,4.8-14.8,7.1-22.2c0.8-3,1.6-6,2.4-9.1
		c20.6,0,41.2,0,61.7,0C139.6,30,139.6,30.7,139.6,31.4L139.6,31.4z"/>
	<path fill="none" stroke="#010101" stroke-width="0.75" stroke-linecap="round" stroke-linejoin="round" stroke-miterlimit="8" d="
		M284.2,30.1c3,12.2,6.1,24.3,9.1,36.5c-1,0.5-2,0.9-2.9,1.4c-1.3-2.6-2.7-5.2-4-7.9c-4.6-8.7-9.7-15.1-15-18.9
		c-6.2-4.1-13.6-6-22.3-6.2c-8.5,0-16.1,3.6-22.9,10.9c-6,6.1-10.4,13.7-13.1,22.8c-3.6,11.1-5.5,23.4-5.5,37.3
		c0,15.3,2.3,28,6.6,38.3c3.9,8.7,8.5,15.5,13.8,20.3c6.7,6.7,15.3,9.9,25.9,9.9c7.8,0,14.9-2.8,21.6-8.7
		c6.7-5.9,13.2-15.3,19.3-28.4c0.9,0.3,1.7,0.5,2.6,0.8c-4.2,12.5-9.2,22.1-14.5,28.8c-5.8,7.3-11.4,12-16.7,14.3
		c-4.5,1.8-9.8,2.8-16.2,2.8c-10,0-18.7-3.1-26-9.5c-9.1-6.9-16.3-16.5-21.2-28.8c-3.9-11.1-5.9-23.6-5.9-37.3
		c0-15.1,2.1-28.6,6-40.5c4.1-11.7,11-21.9,20-30.6c8.4-5.5,17.2-8.1,26.4-8.1c5,0,10.4,1,15.9,3c4.5,1.8,7.4,2.6,8.8,2.6
		C276.8,35,280.2,33.4,284.2,30.1L284.2,30.1z M178.6,9.2c5.2,0,9.7,2.2,13.6,6.6c3.9,4.7,5.9,9.9,5.9,16.1c0,5.8-1.9,11-5.9,15.7
		c-3.9,4.5-8.5,6.6-13.6,6.6c-5.2,0-9.7-2.2-13.6-6.6c-3.7-4.7-5.7-9.9-5.7-15.7c0-6.2,1.9-11.4,5.7-16.1
		C168.9,11.4,173.4,9.2,178.6,9.2L178.6,9.2z M178.6,49.7c4,0,7.6-1.8,10.7-5.4c2.9-3.7,4.5-7.6,4.5-12.3c0-4.8-1.6-9-4.5-12.7
		c-3.1-3.5-6.7-5-10.7-5c-4.1,0-7.8,1.6-10.7,5c-2.9,3.7-4.5,7.9-4.5,12.7c0,4.6,1.6,8.6,4.5,12.3C170.8,47.9,174.5,49.7,178.6,49.7
		L178.6,49.7z"/>
</g>
</svg>
