<?xml version="1.0" encoding="utf-8"?>
<!-- Generator: Adobe Illustrator 18.0.0, SVG Export Plug-In . SVG Version: 6.00 Build 0)  -->
<!DOCTYPE svg PUBLIC "-//W3C//DTD SVG 1.1//EN" "http://www.w3.org/Graphics/SVG/1.1/DTD/svg11.dtd">
<svg version="1.1" id="Layer_1" xmlns="http://www.w3.org/2000/svg" xmlns:xlink="http://www.w3.org/1999/xlink" x="0px" y="0px"
	 viewBox="0 254.5 595.3 350.7" enable-background="new 0 254.5 595.3 350.7" xml:space="preserve">
<g>
	<g>
		<g>
			<g>
				<defs>
					<rect id="SVGID_1_" y="254.5" width="595.3" height="350.7"/>
				</defs>
				<clipPath id="SVGID_2_">
					<use xlink:href="#SVGID_1_"  overflow="visible"/>
				</clipPath>
				<g clip-path="url(#SVGID_2_)">
					<text transform="matrix(1 0 0 1 2.441406e-003 280.5458)" fill="#010101" font-family="'Calibri'" font-size="23.9622"> </text>
				</g>
			</g>
		</g>
	</g>
	<path fill="#990099" d="M94.9,592.4c-30.2,0-60.3,0-90.7,0c0-2.6,0-5.4,0-8c12-0.4,20.8-2.8,25.2-6.4c6.8-5.8,10.4-16.6,10.4-32.2
		c0-66.5,0-133,0-199.5c0-15.2-4.8-23-14.2-23c-5.8,0-14.2,2.4-24.8,7.2c0-2.2,0-4.2,0-6.4c19.4-11,38.9-21.6,58.1-32.5
		c0,87.3,0,174.5,0,261.8c0,11.6,2.8,19.6,8.2,24.6c5.4,4.4,14.8,6.4,27.6,6.4C94.9,587,94.9,589.6,94.9,592.4L94.9,592.4z"/>
	<path fill="#366092" d="M278.8,299.6c-23.4,98.6-48.1,196.9-71.7,295.5c-6.4,0-12.6,0-19,0c23.6-92.9,48.5-185.3,71.9-278.4
		c-25.6,0-50.9,0-76.5,0c-10.4,0-18.6,4-24.4,12c-0.6,1.2-5.6,11.2-14.8,30.2c-2.6-0.4-5.2-0.8-8-1.2c4.6-14.8,9.6-29.6,14.2-44.3
		c1.6-6,3.2-12,4.8-18.2c41.1,0,82.3,0,123.2,0C278.8,296.8,278.8,298.2,278.8,299.6L278.8,299.6z"/>
	<path fill="#366092" d="M567.5,297c6,24.4,12.2,48.5,18.2,72.9c-2,1-4,1.8-5.8,2.8c-2.6-5.2-5.4-10.4-8-15.8
		c-9.2-17.4-19.4-30.2-30-37.7c-12.4-8.2-27.2-12-44.5-12.4c-17,0-32.2,7.2-45.7,21.8c-12,12.2-20.8,27.4-26.2,45.5
		c-7.2,22.2-11,46.7-11,74.5c0,30.6,4.6,55.9,13.2,76.5c7.8,17.4,17,31,27.6,40.5c13.4,13.4,30.6,19.8,51.7,19.8
		c15.6,0,29.8-5.6,43.1-17.4c13.4-11.8,26.4-30.6,38.5-56.7c1.8,0.6,3.4,1,5.2,1.6c-8.4,25-18.4,44.1-29,57.5
		c-11.6,14.6-22.8,24-33.3,28.6c-9,3.6-19.6,5.6-32.4,5.6c-20,0-37.3-6.2-51.9-19c-18.2-13.8-32.5-32.9-42.3-57.5
		c-7.8-22.2-11.8-47.1-11.8-74.5c0-30.2,4.2-57.1,12-80.9c8.2-23.4,22-43.7,39.9-61.1c16.8-11,34.3-16.2,52.7-16.2
		c10,0,20.8,2,31.8,6c9,3.6,14.8,5.2,17.6,5.2C552.7,306.8,559.5,303.6,567.5,297L567.5,297z M356.6,255.3
		c10.4,0,19.4,4.4,27.2,13.2c7.8,9.4,11.8,19.8,11.8,32.2c0,11.6-3.8,22-11.8,31.4c-7.8,9-17,13.2-27.2,13.2
		c-10.4,0-19.4-4.4-27.2-13.2c-7.4-9.4-11.4-19.8-11.4-31.4c0-12.4,3.8-22.8,11.4-32.2C337.3,259.7,346.3,255.3,356.6,255.3
		L356.6,255.3z M356.6,336.2c8,0,15.2-3.6,21.4-10.8c5.8-7.4,9-15.2,9-24.6c0-9.6-3.2-18-9-25.4c-6.2-7-13.4-10-21.4-10
		c-8.2,0-15.6,3.2-21.4,10c-5.8,7.4-9,15.8-9,25.4c0,9.2,3.2,17.2,9,24.6C341.1,332.6,348.5,336.2,356.6,336.2L356.6,336.2z"/>
	<path fill="none" stroke="#010101" stroke-width="0.75" stroke-linecap="round" stroke-linejoin="round" stroke-miterlimit="8" d="
		M94.9,592.4c-30.2,0-60.3,0-90.7,0c0-2.6,0-5.4,0-8c12-0.4,20.8-2.8,25.2-6.4c6.8-5.8,10.4-16.6,10.4-32.2c0-66.5,0-133,0-199.5
		c0-15.2-4.8-23-14.2-23c-5.8,0-14.2,2.4-24.8,7.2c0-2.2,0-4.2,0-6.4c19.4-11,38.9-21.6,58.1-32.5c0,87.3,0,174.5,0,261.8
		c0,11.6,2.8,19.6,8.2,24.6c5.4,4.4,14.8,6.4,27.6,6.4C94.9,587,94.9,589.6,94.9,592.4L94.9,592.4z"/>
	<path fill="#990099" d="M278.8,299.6c-23.4,98.6-48.1,196.9-71.7,295.5c-6.4,0-12.6,0-19,0c23.6-92.9,48.5-185.3,71.9-278.4
		c-25.6,0-50.9,0-76.5,0c-10.4,0-18.6,4-24.4,12c-0.6,1.2-5.6,11.2-14.8,30.2c-2.6-0.4-5.2-0.8-8-1.2c4.6-14.8,9.6-29.6,14.2-44.3
		c1.6-6,3.2-12,4.8-18.2c41.1,0,82.3,0,123.2,0C278.8,296.8,278.8,298.2,278.8,299.6L278.8,299.6z"/>
	<path fill="#990099" d="M567.5,297c6,24.4,12.2,48.5,18.2,72.9c-2,1-4,1.8-5.8,2.8c-2.6-5.2-5.4-10.4-8-15.8
		c-9.2-17.4-19.4-30.2-30-37.7c-12.4-8.2-27.2-12-44.5-12.4c-17,0-32.2,7.2-45.7,21.8c-12,12.2-20.8,27.4-26.2,45.5
		c-7.2,22.2-11,46.7-11,74.5c0,30.6,4.6,55.9,13.2,76.5c7.8,17.4,17,31,27.6,40.5c13.4,13.4,30.6,19.8,51.7,19.8
		c15.6,0,29.8-5.6,43.1-17.4c13.4-11.8,26.4-30.6,38.5-56.7c1.8,0.6,3.4,1,5.2,1.6c-8.4,25-18.4,44.1-29,57.5
		c-11.6,14.6-22.8,24-33.3,28.6c-9,3.6-19.6,5.6-32.4,5.6c-20,0-37.3-6.2-51.9-19c-18.2-13.8-32.5-32.9-42.3-57.5
		c-7.8-22.2-11.8-47.1-11.8-74.5c0-30.2,4.2-57.1,12-80.9c8.2-23.4,22-43.7,39.9-61.1c16.8-11,34.3-16.2,52.7-16.2
		c10,0,20.8,2,31.8,6c9,3.6,14.8,5.2,17.6,5.2C552.7,306.8,559.5,303.6,567.5,297L567.5,297z M356.6,255.3
		c10.4,0,19.4,4.4,27.2,13.2c7.8,9.4,11.8,19.8,11.8,32.2c0,11.6-3.8,22-11.8,31.4c-7.8,9-17,13.2-27.2,13.2
		c-10.4,0-19.4-4.4-27.2-13.2c-7.4-9.4-11.4-19.8-11.4-31.4c0-12.4,3.8-22.8,11.4-32.2C337.3,259.7,346.3,255.3,356.6,255.3
		L356.6,255.3z M356.6,336.2c8,0,15.2-3.6,21.4-10.8c5.8-7.4,9-15.2,9-24.6c0-9.6-3.2-18-9-25.4c-6.2-7-13.4-10-21.4-10
		c-8.2,0-15.6,3.2-21.4,10c-5.8,7.4-9,15.8-9,25.4c0,9.2,3.2,17.2,9,24.6C341.1,332.6,348.5,336.2,356.6,336.2L356.6,336.2z"/>
</g>
</svg>
