<?xml version="1.0" encoding="utf-8"?>
<!-- Generator: Adobe Illustrator 18.0.0, SVG Export Plug-In . SVG Version: 6.00 Build 0)  -->
<!DOCTYPE svg PUBLIC "-//W3C//DTD SVG 1.1//EN" "http://www.w3.org/Graphics/SVG/1.1/DTD/svg11.dtd">
<svg version="1.1" id="Capa_1" xmlns="http://www.w3.org/2000/svg" xmlns:xlink="http://www.w3.org/1999/xlink" x="0px" y="0px"
	 viewBox="17.1 123.3 561.3 595.2" enable-background="new 17.1 123.3 561.3 595.2" xml:space="preserve">
<g>
	<g>
		<g>
			<path fill="#990099" d="M313.5,150.8v-13.2l0,0v-1.1V133h-0.9c-1.9-5.6-7.1-9.7-13.4-9.7s-11.5,4.1-13.3,9.6H285v17.7
				c-140.3,6-253.9,109.1-268,240.4l6.8,1.2c7.1-29.5,33.6-51.5,65.3-51.5c32.5,0,59.5,23.3,65.6,54.1l0.6,2.8h7l0.5-2.8
				c6.1-30.8,33.1-54.1,65.6-54.1c24,0,44.8,12.7,56.7,31.5v255.7l0,0v33.8c0,16.1-12.4,28.3-26.6,28.3c-14.1,0-26.4-12.3-26.5-28.4
				c0-7.9-6.4-14.3-14.3-14.3c-6.7,0-12.3,4.6-13.8,10.8h-0.5v3.5c0,30.9,24.2,56.8,55.1,56.8c30.9-0.1,55-25.9,55.1-56.8v-33.8l0,0
				V368.4c12.1-16.9,31.8-27.8,54.2-27.8c32.5,0,59.5,23.3,65.6,54.1l0.6,2.8h7l0.6-2.8c6.1-30.8,33-54.1,65.6-54.1
				c30.6,0,56.4,20.5,64.5,48.5l6.8-1.4C562.6,258.9,451.3,158,313.5,150.8z"/>
		</g>
	</g>
</g>
</svg>
