<?xml version="1.0" encoding="utf-8"?>
<!-- Generator: Adobe Illustrator 18.0.0, SVG Export Plug-In . SVG Version: 6.00 Build 0)  -->
<!DOCTYPE svg PUBLIC "-//W3C//DTD SVG 1.1//EN" "http://www.w3.org/Graphics/SVG/1.1/DTD/svg11.dtd">
<svg version="1.1" id="Layer_1" xmlns="http://www.w3.org/2000/svg" xmlns:xlink="http://www.w3.org/1999/xlink" x="0px" y="0px"
	 viewBox="141 59.5 476.2 476.2" enable-background="new 141 59.5 476.2 476.2" xml:space="preserve">
<path fill="#666666" d="M402.1,181.7c48.4,0,87.6,41.5,87.6,92.4c0,0.2,0,0.6,0,0.8c0,0.6,0,1.4,0,2l-0.3,14h13.4
	c32,0,58.1,27.6,58.1,61.4c0,33.6-26.1,61.3-58.1,61.4h-2.8H262.3c-35.7,0-64.9-30.8-64.9-68.2c0-29.2,17.7-55.1,43.7-64.6l7.2-2.7
	l1.3-7.9c3.1-19.8,19.3-34.1,38.3-34.1c6.1,0,11.9,1.6,17.4,4.4l11.8,6.3l5.8-12.6C337.7,202.3,368.8,181.7,402.1,181.7
	 M402.1,168.1c-40.1,0-74.4,24.7-90.8,60.3c-7.1-3.8-14.9-6-23.2-6c-25.8,0-47,19.6-51.2,45.5c-30.6,11.2-52.6,41.5-52.6,77.4
	c0,45.1,34.9,82,77.9,82h240.5l0,0c39.3-0.2,70.8-33.8,70.8-75.1c0-41.5-31.7-75.1-71.2-75.1c0-1.1,0.2-2,0.2-3.3
	C502.7,215.3,457.5,168.1,402.1,168.1L402.1,168.1z"/>
<circle fill="none" stroke="#231F20" stroke-width="5" stroke-miterlimit="10" cx="379.1" cy="297.6" r="235.6"/>
</svg>
