<?xml version="1.0" encoding="utf-8"?>
<!-- Generator: Adobe Illustrator 18.0.0, SVG Export Plug-In . SVG Version: 6.00 Build 0)  -->
<!DOCTYPE svg PUBLIC "-//W3C//DTD SVG 1.1//EN" "http://www.w3.org/Graphics/SVG/1.1/DTD/svg11.dtd">
<svg version="1.1" id="Capa_1" xmlns="http://www.w3.org/2000/svg" xmlns:xlink="http://www.w3.org/1999/xlink" x="0px" y="0px"
	 viewBox="19.8 20.5 476.2 476.2" enable-background="new 19.8 20.5 476.2 476.2" xml:space="preserve">
<g>
	<path fill="#B85827" d="M420,201.2c0-44.8-37.3-80.6-82.1-80.6c-16.4,0-29.8,4.4-43.3,11.9c-19.4-25.4-49.2-41.8-83.6-41.8
		c-58.2,0-104.5,46.3-104.5,104.5c0,1.5,0,4.4,0,5.9c-26.8,11.9-44.8,37.3-44.8,68.7c0,41.8,32.9,74.6,74.6,74.6h82.1L181.1,449
		l104.5-104.5h104.5c41.8,0,74.6-32.9,74.6-74.6C464.8,238.6,446.9,213.2,420,201.2z M218.5,390.8l22.4-61.2h-38.8l34.3-89.6h58.2
		l-22.5,59.7h37.3L218.5,390.8z M390.1,329.6h-89.5l44.8-44.8h-52.2l22.4-59.7H226l-38.9,104.5h-50.7c-32.9,0-59.7-26.8-59.7-59.7
		c0-28.3,19.4-52.2,46.3-58.2c-1.5-6-1.5-10.5-1.5-16.4c0-49.2,40.3-89.6,89.6-89.6c34.3,0,65.6,19.4,80.6,49.2
		c11.9-11.9,28.3-19.4,46.3-19.4c37.3,0,67.2,29.8,67.2,67.2c0,3,0,5.9,0,9c25.4,5.9,44.8,29.8,44.8,58.2
		C449.8,302.8,423,329.6,390.1,329.6z"/>
</g>
<circle fill="none" stroke="#231F20" stroke-width="5" stroke-miterlimit="10" cx="257.9" cy="258.6" r="235.6"/>
</svg>
