<?xml version="1.0" encoding="utf-8"?>
<!-- Generator: Adobe Illustrator 18.0.0, SVG Export Plug-In . SVG Version: 6.00 Build 0)  -->
<!DOCTYPE svg PUBLIC "-//W3C//DTD SVG 1.1//EN" "http://www.w3.org/Graphics/SVG/1.1/DTD/svg11.dtd">
<svg version="1.1"
	 id="svg1306" xmlns:dc="http://purl.org/dc/elements/1.1/" xmlns:cc="http://creativecommons.org/ns#" xmlns:rdf="http://www.w3.org/1999/02/22-rdf-syntax-ns#" xmlns:svg="http://www.w3.org/2000/svg" xmlns:sodipodi="http://sodipodi.sourceforge.net/DTD/sodipodi-0.dtd" xmlns:inkscape="http://www.inkscape.org/namespaces/inkscape" inkscape:output_extension="org.inkscape.output.svg.inkscape" sodipodi:version="0.32" sodipodi:docname="weather-showers-scattered.svg" inkscape:version="0.47 r22583"
	 xmlns="http://www.w3.org/2000/svg" xmlns:xlink="http://www.w3.org/1999/xlink" x="0px" y="0px"
	 viewBox="-214.2 -214.5 476.2 476.2" enable-background="new -214.2 -214.5 476.2 476.2" xml:space="preserve">
<defs>
	
	
		<inkscape:perspective  inkscape:vp_z="48 : 24 : 1" inkscape:vp_y="0 : 1000 : 0" inkscape:vp_x="0 : 24 : 1" sodipodi:type="inkscape:persp3d" id="perspective585" inkscape:persp3d-origin="24 : 16 : 1">
		</inkscape:perspective>
	
		<inkscape:perspective  inkscape:vp_z="1 : 0.5 : 1" inkscape:vp_y="0 : 1000 : 0" inkscape:vp_x="0 : 0.5 : 1" sodipodi:type="inkscape:persp3d" id="perspective4347" inkscape:persp3d-origin="0.5 : 0.33333333 : 1">
		</inkscape:perspective>
</defs>
<sodipodi:namedview  inkscape:current-layer="layer1" showgrid="true" inkscape:cy="23.445419" inkscape:cx="11.507803" inkscape:zoom="11.313709" borderopacity="1.0" bordercolor="#666666" pagecolor="#ffffff" id="base" inkscape:pageshadow="2" inkscape:pageopacity="0.0" inkscape:window-width="1600" inkscape:document-units="px" inkscape:grid-bbox="true" inkscape:window-height="838" inkscape:window-x="-8" inkscape:window-y="-8" inkscape:showpageshadow="false" inkscape:window-maximized="1">
	</sodipodi:namedview>
<g id="layer1" inkscape:label="Layer 1" inkscape:groupmode="layer">
	<path id="path12229" sodipodi:nodetypes="cccc" fill="none" stroke="#3551A3" stroke-width="5" stroke-miterlimit="2" d="
		M68.6,139.3c-9.4-5.4-12.7-17.4-7.2-26.7c12.1-18.9,28.1-14,36.4-33.9C109.2,90.8,104.9,153.4,68.6,139.3z"/>
	
		<path id="path12580" sodipodi:nodetypes="ccsscsssscsscc" fill="#FFFFFF" stroke="#3551A3" stroke-width="5" stroke-miterlimit="2" d="
		M94.7-112.1c-20.6,0-37.2,14.1-42.8,32.9c-6.3-3.3-13.1-5.7-20.7-5.7c-25,0-45.3,20.3-45.3,45.3c0,5.2,1.5,10,3.1,14.7
		c-12.4,7-21.2,19.8-21.2,35.1c0,22.5,18.3,40.8,40.8,40.8c1.6,0,170.6,0,172.2,0c22.5,0,40.8-18.3,40.8-40.8
		c0-15.3-8.8-28.1-21.2-35.1c1.6-4.7,3.1-9.5,3.1-14.7c0-25-20.3-45.3-45.3-45.3c-7.6,0-14.4,2.4-20.7,5.7
		C131.9-98,115.2-112.1,94.7-112.1z"/>
	
		<path id="path12597" sodipodi:cy="-437.59375" sodipodi:cx="288.375" sodipodi:rx="3.3125" sodipodi:ry="3.3125" sodipodi:type="arc" fill="#FFFFFF" stroke="#3551A3" stroke-width="5" d="
		M63-39.6C63-22,48.8-7.8,31.2-7.8S-0.5-22-0.5-39.6s14.2-31.7,31.7-31.7S63-57.1,63-39.6L63-39.6z"/>
	
		<path id="path12599" sodipodi:cy="-437.59375" sodipodi:cx="288.375" sodipodi:rx="3.3125" sodipodi:ry="3.3125" sodipodi:type="arc" opacity="0.4778" fill="#FFFFFF" stroke="#3551A3" stroke-width="5" enable-background="new    " d="
		M63-39.6C63-22,48.8-7.8,31.2-7.8S-0.5-22-0.5-39.6s14.2-31.7,31.7-31.7S63-57.1,63-39.6L63-39.6z"/>
	
		<path id="path12329" sodipodi:nodetypes="ccsscsssscsscc" fill="#FFFFFF" stroke="#3551A3" stroke-width="5" stroke-miterlimit="2" d="
		M-41.4-148.5c-20.6,0-37.2,14.1-42.8,32.9c-6.3-3.3-13.1-5.7-20.7-5.7c-25,0-45.3,20.3-45.3,45.3c0,5.2,1.5,10,3.1,14.7
		c-12.4,7-21.2,19.8-21.2,35.1c0,22.5,18.3,40.8,40.8,40.8c1.6,0,170.6,0,172.2,0c22.5,0,40.8-18.3,40.8-40.8
		c0-15.3-8.8-28.1-21.2-35.1c1.6-4.7,3.1-9.5,3.1-14.7c0-25-20.3-45.3-45.3-45.3c-7.6,0-14.4,2.4-20.7,5.7
		C-4.1-134.4-20.8-148.5-41.4-148.5z"/>
	<path id="path12193" sodipodi:nodetypes="cccc" fill="none" stroke="#3551A3" stroke-width="5" stroke-miterlimit="2" d="
		M-152,88.8c-9.4-5.4-12.7-17.4-7.2-26.7c12.1-18.9,28.1-14,36.4-33.9C-111.4,40.3-115.6,102.9-152,88.8z"/>
	<path id="path12241" sodipodi:nodetypes="cccc" fill="none" stroke="#3551A3" stroke-width="5" stroke-miterlimit="2" d="
		M143.7,125.8c-9.4-5.4-12.7-17.4-7.2-26.7c12.1-18.9,28.1-14,36.4-33.9C184.3,77.2,180.1,139.9,143.7,125.8z"/>
	<path id="path6059" sodipodi:nodetypes="cccc" fill="none" stroke="#3551A3" stroke-width="5" stroke-miterlimit="2" d="
		M-115.6,168.2c-9.4-5.4-12.7-17.4-7.2-26.7c12.1-18.9,28.1-14,36.4-33.9C-75,119.6-79.3,182.3-115.6,168.2z"/>
	<path id="path12205" sodipodi:nodetypes="cccc" fill="none" stroke="#3551A3" stroke-width="5" stroke-miterlimit="2" d="
		M-50.6,114.8c-9.4-5.4-12.7-17.4-7.2-26.7c12.1-18.9,28.1-14,36.4-33.9C-10,66.3-14.3,129-50.6,114.8z"/>
	<path id="path12241-1" sodipodi:nodetypes="cccc" fill="none" stroke="#3551A3" stroke-width="5" stroke-miterlimit="2" d="
		M0.5,178.4c-9.4-5.4-12.7-17.4-7.2-26.7c12.1-18.9,28.1-14,36.4-33.9C41.1,129.9,36.9,192.5,0.5,178.4z"/>
</g>
<circle fill="none" stroke="#231F20" stroke-width="5" stroke-miterlimit="10" cx="23.9" cy="23.6" r="235.6"/>
<circle fill="none" stroke="#231F20" stroke-width="5" stroke-miterlimit="10" cx="23.9" cy="23.6" r="235.6"/>
<circle fill="none" stroke="#231F20" stroke-width="5" stroke-miterlimit="10" cx="23.9" cy="23.6" r="235.6"/>
</svg>
