<?xml version="1.0" encoding="utf-8"?>
<!-- Generator: Adobe Illustrator 18.0.0, SVG Export Plug-In . SVG Version: 6.00 Build 0)  -->
<!DOCTYPE svg PUBLIC "-//W3C//DTD SVG 1.1//EN" "http://www.w3.org/Graphics/SVG/1.1/DTD/svg11.dtd">
<svg version="1.1" id="Capa_1" xmlns="http://www.w3.org/2000/svg" xmlns:xlink="http://www.w3.org/1999/xlink" x="0px" y="0px"
	 viewBox="-215.2 -214.5 476.2 476.2" enable-background="new -215.2 -214.5 476.2 476.2" xml:space="preserve">
<circle fill="none" stroke="#231F20" stroke-width="5" stroke-miterlimit="10" cx="22.9" cy="23.6" r="235.6"/>
<g>
	<path fill="#5C4DA0" stroke="#70C176" stroke-miterlimit="10" d="M42.6-151.9c40.9,0,74.1,35.1,74.1,78.1c0,0.1,0,0.5,0,0.7
		c0,0.5,0,1.2,0,1.7l-0.3,11.8h11.3c27.1,0,49.2,23.4,49.2,51.9c0,28.4-22.1,51.8-49.2,51.9h-2.4h-201c-30.2,0-54.9-26-54.9-57.7
		c0-24.7,15-46.6,36.9-54.6l6.1-2.3l1.1-6.6c2.7-16.7,16.3-28.8,32.4-28.8c5.2,0,10.1,1.3,14.7,3.7l10,5.3l4.9-10.6
		C-11.9-134.5,14.4-151.9,42.6-151.9 M42.6-163.5c-33.9,0-63,20.9-76.8,51c-6-3.2-12.6-5-19.7-5c-21.8,0-39.7,16.6-43.3,38.5
		c-25.9,9.4-44.5,35.1-44.5,65.5c0,38.1,29.5,69.3,65.9,69.3h203.4l0,0c33.2-0.1,59.9-28.6,59.9-63.5c0-35.1-26.8-63.5-60.2-63.5
		c0-0.9,0.1-1.7,0.1-2.8C127.8-123.5,89.5-163.5,42.6-163.5L42.6-163.5z"/>
	<circle fill="#5C4DA0" stroke="#70C176" stroke-miterlimit="10" cx="-8.5" cy="141.3" r="17.5"/>
	<circle fill="#5C4DA0" stroke="#70C176" stroke-miterlimit="10" cx="-51.5" cy="91.4" r="17.5"/>
	<circle fill="#5C4DA0" stroke="#70C176" stroke-miterlimit="10" cx="120" cy="91.4" r="17.5"/>
	<circle fill="#5C4DA0" stroke="#70C176" stroke-miterlimit="10" cx="76" cy="141.3" r="17.5"/>
	<circle fill="#5C4DA0" stroke="#70C176" stroke-miterlimit="10" cx="33.5" cy="91.4" r="17.5"/>
	<circle fill="#5C4DA0" stroke="#70C176" stroke-miterlimit="10" cx="33.5" cy="185" r="17.5"/>
	<circle fill="#5C4DA0" stroke="#70C176" stroke-miterlimit="10" cx="120" cy="185" r="17.5"/>
	<circle fill="#5C4DA0" stroke="#70C176" stroke-miterlimit="10" cx="-51.5" cy="185" r="17.5"/>
</g>
</svg>
