<?xml version="1.0" encoding="utf-8"?>
<!-- Generator: Adobe Illustrator 18.0.0, SVG Export Plug-In . SVG Version: 6.00 Build 0)  -->
<!DOCTYPE svg PUBLIC "-//W3C//DTD SVG 1.1//EN" "http://www.w3.org/Graphics/SVG/1.1/DTD/svg11.dtd">
<svg version="1.1" id="Layer_1" xmlns="http://www.w3.org/2000/svg" xmlns:xlink="http://www.w3.org/1999/xlink" x="0px" y="0px"
	 viewBox="182.8 59.5 476.2 476.2" enable-background="new 182.8 59.5 476.2 476.2" xml:space="preserve">
<g>
	<g>
		<path fill="#F04E2A" d="M420.8,193.2c-57.5,0-104.4,46.8-104.4,104.6c0,57.6,46.8,104.6,104.4,104.6s104.4-46.8,104.4-104.6
			S478.3,193.2,420.8,193.2z M420.8,372.4c-41.3,0-74.6-33.3-74.6-74.6s33.3-74.6,74.6-74.6s74.6,33.3,74.6,74.6
			S462.1,372.4,420.8,372.4z M420.8,163.5c8.2,0,14.9-6.6,14.9-14.9v-30c0-8.2-6.6-14.9-14.9-14.9c-8.2,0-14.9,6.6-14.9,14.9v30
			C405.9,156.8,412.6,163.5,420.8,163.5z M420.8,432.1c-8.2,0-14.9,6.6-14.9,14.9v30c0,8.2,6.6,14.9,14.9,14.9
			c8.2,0,14.9-6.6,14.9-14.9v-30C435.7,438.7,429.1,432.1,420.8,432.1z M536.9,202.8l21-21c6-6,6-15.2,0-21c-6-6-15.2-6-21,0l-21,21
			c-6,6-6,15.2,0,21C521.6,208.7,530.9,208.7,536.9,202.8z M304.9,392.8l-21,21c-6,6-6,15.2,0,21c6,6,15.2,6,21,0l21-21
			c6-6,6-15.2,0-21S310.7,386.9,304.9,392.8z M286.7,297.6c0-8.2-6.6-14.9-14.9-14.9h-29.8c-8.2,0-14.9,6.6-14.9,14.9
			c0,8.2,6.6,14.9,14.9,14.9h30C279.9,312.7,286.7,306,286.7,297.6z M600,282.9h-29.8c-8.2,0-14.9,6.6-14.9,14.9
			c0,8.2,6.6,14.9,14.9,14.9H600c8.2,0,14.9-6.6,14.9-14.9C614.8,289.5,608.2,282.9,600,282.9z M304.7,202.8c6,6,15.2,6,21,0
			c5.8-6,6-15.2,0-21l-21-21c-6-6-15.2-6-21,0c-5.8,6-6,15.2,0,21L304.7,202.8z M537,392.8c-6-6-15.2-6-21,0c-6,6-6,15.2,0,21l21,21
			c6,6,15.2,6,21,0c6-6,6-15.2,0-21L537,392.8z"/>
	</g>
</g>
<circle fill="none" stroke="#231F20" stroke-width="5" stroke-miterlimit="10" cx="420.9" cy="297.6" r="235.6"/>
</svg>
